<?xml version="1.0" encoding="UTF-8" standalone="no"?>
<!-- Created with Inkscape (http://www.inkscape.org/) -->

<svg
   version="1.1"
   id="svg2"
   xml:space="preserve"
   width="544.32001"
   height="544.32001"
   viewBox="0 0 544.32001 544.32001"
   sodipodi:docname="fig1_flowchart.svg"
   inkscape:version="1.1.2 (0a00cf5339, 2022-02-04)"
   xmlns:inkscape="http://www.inkscape.org/namespaces/inkscape"
   xmlns:sodipodi="http://sodipodi.sourceforge.net/DTD/sodipodi-0.dtd"
   xmlns="http://www.w3.org/2000/svg"
   xmlns:svg="http://www.w3.org/2000/svg"><defs
     id="defs6"><clipPath
       clipPathUnits="userSpaceOnUse"
       id="clipPath16"><path
         d="M 47.3899,23.9238 H 70.0671 V 46.601 H 47.3899 Z"
         clip-rule="evenodd"
         id="path14" /></clipPath><clipPath
       clipPathUnits="userSpaceOnUse"
       id="clipPath254"><path
         d="m 61.86,340.209 h 12.343 v 12.343 H 61.86 Z"
         clip-rule="evenodd"
         id="path252" /></clipPath><clipPath
       clipPathUnits="userSpaceOnUse"
       id="clipPath308"><path
         d="m 288.955,127.032 h 12.343 v 12.343 h -12.343 z"
         clip-rule="evenodd"
         id="path306" /></clipPath></defs><sodipodi:namedview
     id="namedview4"
     pagecolor="#ffffff"
     bordercolor="#666666"
     borderopacity="1.0"
     inkscape:pageshadow="2"
     inkscape:pageopacity="0.0"
     inkscape:pagecheckerboard="0"
     showgrid="false"
     inkscape:zoom="1.3209142"
     inkscape:cx="102.20195"
     inkscape:cy="272.16"
     inkscape:window-width="1920"
     inkscape:window-height="1043"
     inkscape:window-x="0"
     inkscape:window-y="0"
     inkscape:window-maximized="1"
     inkscape:current-layer="g8" /><g
     id="g8"
     inkscape:groupmode="layer"
     inkscape:label="fig1_flowchart"
     transform="matrix(1.3333333,0,0,-1.3333333,0,544.32)"><g
       id="g10"><g
         id="g12"
         clip-path="url(#clipPath16)"><path
           d="m 42.8545,42.0655 h 31.748 v 4.5354 h -31.748 z"
           style="fill:#e7c279;fill-opacity:1;fill-rule:evenodd;stroke:none"
           id="path18" /><path
           d="m 42.8545,32.9946 h 31.748 V 37.53 h -31.748 z"
           style="fill:#e7c279;fill-opacity:1;fill-rule:evenodd;stroke:none"
           id="path20" /><path
           d="m 42.8545,23.9238 h 31.748 v 4.5354 h -31.748 z"
           style="fill:#e7c279;fill-opacity:1;fill-rule:evenodd;stroke:none"
           id="path22" /></g></g><g
       id="g24"
       transform="translate(80.2405,38.7091)"><text
         transform="scale(1,-1)"
         style="font-variant:normal;font-weight:normal;font-size:11.9573px;font-family:Cochineal;-inkscape-font-specification:Cochineal-Roman;writing-mode:lr-tb;fill:#000000;fill-opacity:1;fill-rule:nonzero;stroke:none"
         id="text28"><tspan
           x="0 8.3581524 13.429244 16.44368 20.113375 26.126701"
           y="0"
           sodipodi:role="line"
           id="tspan26">Halton</tspan></text></g><g
       id="g30"
       transform="translate(75.0689,23.7625)"><text
         transform="scale(1,-1)"
         style="font-variant:normal;font-weight:normal;font-size:11.9573px;font-family:Cochineal;-inkscape-font-specification:Cochineal-Roman;writing-mode:lr-tb;fill:#000000;fill-opacity:1;fill-rule:nonzero;stroke:none"
         id="text34"><tspan
           x="0 4.3273468 9.3864803 15.258711 21.343781 26.402914 32.691257 37.700172"
           y="0"
           sodipodi:role="line"
           id="tspan32">sequence</tspan></text></g><path
       d="m 181.62,47.9515 c -0.995,0.1054 -1.998,0.1054 -2.992,0 l -0.236,-3.7434 c -0.83,-0.1387 -1.64,-0.3765 -2.413,-0.7083 l -2.222,3.0215 c -0.894,-0.4489 -1.737,-0.9911 -2.517,-1.6176 l 1.825,-3.2767 c -0.623,-0.5652 -1.175,-1.203 -1.646,-1.9 l -3.503,1.3403 c -0.509,-0.8608 -0.926,-1.7731 -1.243,-2.7215 l 3.307,-1.7699 c -0.219,-0.8121 -0.339,-1.6475 -0.358,-2.4883 l -3.672,-0.7665 c 0.038,-0.9994 0.18,-1.9921 0.426,-2.9614 l 3.739,0.299 c 0.255,-0.8013 0.606,-1.5691 1.044,-2.2868 l -2.674,-2.6298 c 0.572,-0.8207 1.228,-1.5786 1.959,-2.2612 l 2.984,2.273 c 0.648,-0.5361 1.358,-0.9924 2.115,-1.3592 l -0.828,-3.6582 c 0.924,-0.3814 1.887,-0.664 2.87,-0.843 l 1.282,3.5253 c 0.835,-0.1007 1.679,-0.1007 2.514,0 l 1.281,-3.5253 c 0.984,0.179 1.946,0.4616 2.871,0.843 l -0.829,3.6582 c 0.757,0.3668 1.467,0.8231 2.115,1.3592 l 2.984,-2.273 c 0.731,0.6826 1.388,1.4405 1.959,2.2612 l -2.674,2.6298 c 0.438,0.7177 0.789,1.4855 1.044,2.2868 l 3.739,-0.299 c 0.246,0.9693 0.389,1.962 0.426,2.9614 l -3.672,0.7665 c -0.019,0.8408 -0.139,1.6762 -0.358,2.4883 l 3.307,1.7699 c -0.317,0.9484 -0.733,1.8607 -1.242,2.7215 l -3.504,-1.3403 c -0.47,0.697 -1.023,1.3348 -1.646,1.9 l 1.825,3.2767 c -0.779,0.6265 -1.623,1.1687 -2.517,1.6176 l -2.222,-3.0215 c -0.773,0.3318 -1.583,0.5696 -2.412,0.7083 z m -1.496,-8.1737 c 3.273,0 5.93,-2.6572 5.93,-5.9302 0,-3.273 -2.657,-5.9303 -5.93,-5.9303 -3.273,0 -5.931,2.6573 -5.931,5.9303 0,3.273 2.658,5.9302 5.931,5.9302 z"
       style="fill:#1f91c2;fill-opacity:1;fill-rule:evenodd;stroke:none"
       id="path36" /><g
       id="g38"
       transform="translate(199.323,39.0917)"><text
         transform="scale(1,-1)"
         style="font-variant:normal;font-weight:normal;font-size:11.9573px;font-family:Cochineal;-inkscape-font-specification:Cochineal-Roman;writing-mode:lr-tb;fill:#000000;fill-opacity:1;fill-rule:nonzero;stroke:none"
         id="text42"><tspan
           x="0 5.008913 11.022239 20.38361 26.411283 32.496353 36.16605 39.33593 45.624275"
           y="0"
           sodipodi:role="line"
           id="tspan40">computing</tspan></text></g><g
       id="g44"
       transform="translate(209.026,24.1451)"><text
         transform="scale(1,-1)"
         style="font-variant:normal;font-weight:normal;font-size:11.9573px;font-family:Cochineal;-inkscape-font-specification:Cochineal-Roman;writing-mode:lr-tb;fill:#000000;fill-opacity:1;fill-rule:nonzero;stroke:none"
         id="text48"><tspan
           x="0 5.008913 8.0233479 14.108418 18.435764 22.105461 27.164595"
           y="0"
           sodipodi:role="line"
           id="tspan46">cluster</tspan></text></g><path
       d="m 308.59,44.8026 c 0.488,1.5728 2.136,2.7963 4.05,2.7963 1.914,0 3.562,-1.2235 4.049,-2.7963 1.385,0.8914 3.433,0.7696 4.9,-0.4608 1.466,-1.2304 1.942,-3.2268 1.304,-4.745 1.634,-0.2071 3.125,-1.6172 3.457,-3.5023 0.333,-1.8851 -0.586,-3.7202 -2.051,-4.4735 1.119,-1.2086 1.355,-3.2473 0.397,-4.905 -0.957,-1.6577 -2.84,-2.4729 -4.446,-2.1088 0.08,-1.6446 -1.05,-3.3579 -2.849,-4.0126 -1.798,-0.6547 -3.765,-0.0684 -4.761,1.2427 -0.996,-1.3111 -2.963,-1.8974 -4.762,-1.2427 -1.799,0.6547 -2.928,2.368 -2.849,4.0126 -1.606,-0.3641 -3.489,0.4511 -4.446,2.1088 -0.957,1.6577 -0.721,3.6964 0.397,4.905 -1.464,0.7533 -2.383,2.5884 -2.051,4.4735 0.333,1.8851 1.824,3.2952 3.457,3.5023 -0.637,1.5182 -0.162,3.5146 1.305,4.745 1.466,1.2304 3.515,1.3522 4.899,0.4608 z"
       style="fill:#e9634d;fill-opacity:1;fill-rule:evenodd;stroke:none"
       id="path50" /><g
       id="g52"
       transform="translate(332.496,39.0917)"><text
         transform="scale(1,-1)"
         style="font-variant:normal;font-weight:normal;font-size:11.9573px;font-family:Cochineal;-inkscape-font-specification:Cochineal-Roman;writing-mode:lr-tb;fill:#000000;fill-opacity:1;fill-rule:nonzero;stroke:none"
         id="text56"><tspan
           x="0 6.0276752 10.52362 16.263124 21.932079"
           y="0"
           sodipodi:role="line"
           id="tspan54">proxy</tspan></text></g><g
       id="g58"
       transform="translate(331.504,24.1451)"><text
         transform="scale(1,-1)"
         style="font-variant:normal;font-weight:normal;font-size:11.9573px;font-family:Cochineal;-inkscape-font-specification:Cochineal-Roman;writing-mode:lr-tb;fill:#000000;fill-opacity:1;fill-rule:nonzero;stroke:none"
         id="text62"><tspan
           x="0 9.3613701 15.374697 21.450201 26.509335"
           y="0"
           sodipodi:role="line"
           id="tspan60">model</tspan></text></g><path
       d="m 374.173,268.855 c 0,11.377 -9.236,20.613 -20.613,20.613 H 54.6293 c -11.3769,0 -20.6136,-9.236 -20.6136,-20.613 V 83.0267 c 0,-11.3769 9.2367,-20.6135 20.6136,-20.6135 H 353.56 c 11.377,0 20.613,9.2366 20.613,20.6135 z"
       style="fill:#d8dfe3;fill-opacity:1;fill-rule:evenodd;stroke:none"
       id="path64" /><g
       id="g66"
       transform="translate(180.371,173.209)"><text
         transform="scale(1,-1)"
         style="font-variant:normal;font-weight:normal;font-size:11.9573px;font-family:Cochineal;-inkscape-font-specification:Cochineal-Roman;writing-mode:lr-tb;fill:#000000;fill-opacity:1;fill-rule:nonzero;stroke:none"
         id="text70"><tspan
           x="0 9.3613701 14.432461 17.602341 26.414871 29.429306 35.442635 41.455959"
           y="0"
           sodipodi:role="line"
           id="tspan68">mainloop</tspan></text></g><path
       d="m 133.228,381.311 c 0,3.911 -3.175,7.086 -7.086,7.086 H 55.2756 c -3.9112,0 -7.0866,-3.175 -7.0866,-7.086 v -14.173 c 0,-3.912 3.1754,-7.087 7.0866,-7.087 h 70.8664 c 3.911,0 7.086,3.175 7.086,7.087 z"
       style="fill:#ffffff;fill-opacity:1;fill-rule:evenodd;stroke:none"
       id="path72" /><path
       d="m 135.667,381.311 c 0,5.257 -4.268,9.526 -9.525,9.526 H 55.2756 c -5.2574,0 -9.5256,-4.269 -9.5256,-9.526 0,0 0,-14.173 0,-14.173 0,-5.258 4.2682,-9.526 9.5256,-9.526 h 70.8664 c 5.257,0 9.525,4.268 9.525,9.526 z m -2.439,0 c 0,3.911 -3.175,7.086 -7.086,7.086 H 55.2756 c -3.9112,0 -7.0866,-3.175 -7.0866,-7.086 v -14.173 c 0,-3.912 3.1754,-7.087 7.0866,-7.087 h 70.8664 c 3.911,0 7.086,3.175 7.086,7.087 z"
       style="fill:#69bac9;fill-opacity:1;fill-rule:evenodd;stroke:none"
       id="path74" /><g
       id="g76"
       transform="translate(78.5481,378.009)"><text
         transform="scale(1,-1)"
         style="font-variant:normal;font-weight:normal;font-size:11.9573px;font-family:Cochineal;-inkscape-font-specification:Cochineal-Roman;writing-mode:lr-tb;fill:#000000;fill-opacity:1;fill-rule:nonzero;stroke:none"
         id="text80"><tspan
           x="0 6.0276752 10.572644 13.742525 19.755852"
           y="0"
           sodipodi:role="line"
           id="tspan78">prior</tspan></text></g><g
       id="g82"
       transform="translate(60.4986,363.062)"><text
         transform="scale(1,-1)"
         style="font-variant:normal;font-weight:normal;font-size:11.9573px;font-family:Cochineal;-inkscape-font-specification:Cochineal-Roman;writing-mode:lr-tb;fill:#000000;fill-opacity:1;fill-rule:nonzero;stroke:none"
         id="text86"><tspan
           x="0 6.0755043 9.2453842 13.572731 17.242426 21.787395 24.957277 30.840269 36.925339 40.595032 43.764915 49.77824 56.066586"
           y="0"
           sodipodi:role="line"
           id="tspan84">distributions</tspan></text></g><path
       d="m 133.228,324.618 c 0,3.911 -3.175,7.087 -7.086,7.087 H 55.2756 c -3.9112,0 -7.0866,-3.176 -7.0866,-7.087 v -14.173 c 0,-3.911 3.1754,-7.087 7.0866,-7.087 h 70.8664 c 3.911,0 7.086,3.176 7.086,7.087 z"
       style="fill:#ffffff;fill-opacity:1;fill-rule:evenodd;stroke:none"
       id="path88" /><path
       d="m 135.667,324.618 c 0,5.257 -4.268,9.526 -9.525,9.526 H 55.2756 c -5.2574,0 -9.5256,-4.269 -9.5256,-9.526 0,0 0,-14.173 0,-14.173 0,-5.258 4.2682,-9.526 9.5256,-9.526 0,0 70.8664,0 70.8664,0 5.257,0 9.525,4.268 9.525,9.526 z m -2.439,0 c 0,3.911 -3.175,7.087 -7.086,7.087 H 55.2756 c -3.9112,0 -7.0866,-3.176 -7.0866,-7.087 v -14.173 c 0,-3.911 3.1754,-7.087 7.0866,-7.087 h 70.8664 c 3.911,0 7.086,3.176 7.086,7.087 z"
       style="fill:#69bac9;fill-opacity:1;fill-rule:evenodd;stroke:none"
       id="path90" /><g
       id="g92"
       transform="translate(62.1016,314.799)"><text
         transform="scale(1,-1)"
         style="font-variant:normal;font-weight:normal;font-size:11.9573px;font-family:Cochineal;-inkscape-font-specification:Cochineal-Roman;writing-mode:lr-tb;fill:#000000;fill-opacity:1;fill-rule:nonzero;stroke:none"
         id="text96"><tspan
           x="0 3.1698802 9.4582243 12.628104 16.2978 19.46768 24.538771 30.075001 34.402348 39.473438 48.834808 54.813457 57.827896"
           y="0"
           sodipodi:role="line"
           id="tspan94">initialsample</tspan></text></g><path
       d="m 133.228,267.913 c 0,3.911 -3.175,7.087 -7.086,7.087 H 55.2756 c -3.9112,0 -7.0866,-3.176 -7.0866,-7.087 V 253.74 c 0,-3.911 3.1754,-7.087 7.0866,-7.087 h 70.8664 c 3.911,0 7.086,3.176 7.086,7.087 z"
       style="fill:#ffffff;fill-opacity:1;fill-rule:evenodd;stroke:none"
       id="path98" /><path
       d="m 135.667,267.913 c 0,5.257 -4.268,9.526 -9.525,9.526 H 55.2756 c -5.2574,0 -9.5256,-4.269 -9.5256,-9.526 0,0 0,-14.173 0,-14.173 0,-5.257 4.2682,-9.526 9.5256,-9.526 0,0 70.8664,0 70.8664,0 5.257,0 9.525,4.269 9.525,9.526 z m -2.439,0 c 0,3.911 -3.175,7.087 -7.086,7.087 H 55.2756 c -3.9112,0 -7.0866,-3.176 -7.0866,-7.087 V 253.74 c 0,-3.911 3.1754,-7.087 7.0866,-7.087 h 70.8664 c 3.911,0 7.086,3.176 7.086,7.087 z"
       style="fill:#69bac9;fill-opacity:1;fill-rule:evenodd;stroke:none"
       id="path100" /><g
       id="g102"
       transform="translate(73.0119,258.004)"><text
         transform="scale(1,-1)"
         style="font-variant:normal;font-weight:normal;font-size:11.9573px;font-family:Cochineal;-inkscape-font-specification:Cochineal-Roman;writing-mode:lr-tb;fill:#000000;fill-opacity:1;fill-rule:nonzero;stroke:none"
         id="text106"><tspan
           x="0 5.0710907 11.359435 16.430527 19.372023 24.9788 30.298603"
           y="0"
           sodipodi:role="line"
           id="tspan104">analyze</tspan></text></g><path
       d="m 246.614,267.913 c 0,3.911 -3.175,7.087 -7.086,7.087 h -70.867 c -3.911,0 -7.086,-3.176 -7.086,-7.087 V 253.74 c 0,-3.911 3.175,-7.087 7.086,-7.087 h 70.867 c 3.911,0 7.086,3.176 7.086,7.087 z"
       style="fill:#ffffff;fill-opacity:1;fill-rule:evenodd;stroke:none"
       id="path108" /><path
       d="m 249.053,267.913 c 0,5.257 -4.268,9.526 -9.525,9.526 h -70.867 c -5.257,0 -9.525,-4.269 -9.525,-9.526 0,0 0,-14.173 0,-14.173 0,-5.257 4.268,-9.526 9.525,-9.526 0,0 70.867,0 70.867,0 5.257,0 9.525,4.269 9.525,9.526 0,0 0,14.173 0,14.173 z m -2.439,0 c 0,3.911 -3.175,7.087 -7.086,7.087 h -70.867 c -3.911,0 -7.086,-3.176 -7.086,-7.087 V 253.74 c 0,-3.911 3.175,-7.087 7.086,-7.087 h 70.867 c 3.911,0 7.086,3.176 7.086,7.087 z"
       style="fill:#69bac9;fill-opacity:1;fill-rule:evenodd;stroke:none"
       id="path110" /><g
       id="g112"
       transform="translate(183.537,265.436)"><text
         transform="scale(1,-1)"
         style="font-variant:normal;font-weight:normal;font-size:11.9573px;font-family:Cochineal;-inkscape-font-specification:Cochineal-Roman;writing-mode:lr-tb;fill:#000000;fill-opacity:1;fill-rule:nonzero;stroke:none"
         id="text116"><tspan
           x="0 2.8817093 7.3776541 12.160574 15.210881 18.880577 23.425547 28.496637 31.666517"
           y="0"
           sodipodi:role="line"
           id="tspan114">(re)train</tspan></text></g><g
       id="g118"
       transform="translate(172.722,250.489)"><text
         transform="scale(1,-1)"
         style="font-variant:normal;font-weight:normal;font-size:11.9573px;font-family:Cochineal;-inkscape-font-specification:Cochineal-Roman;writing-mode:lr-tb;fill:#000000;fill-opacity:1;fill-rule:nonzero;stroke:none"
         id="text122"><tspan
           x="0 6.0276752 10.52362 16.263124 21.932079 30.063044 39.424416 45.43774 51.513245 56.572376"
           y="0"
           sodipodi:role="line"
           id="tspan120">proxymodel</tspan></text></g><path
       d="m 360,267.913 c 0,3.911 -3.175,7.087 -7.087,7.087 h -70.866 c -3.911,0 -7.086,-3.176 -7.086,-7.087 V 253.74 c 0,-3.911 3.175,-7.087 7.086,-7.087 h 70.866 c 3.912,0 7.087,3.176 7.087,7.087 z"
       style="fill:#ffffff;fill-opacity:1;fill-rule:evenodd;stroke:none"
       id="path124" /><path
       d="m 362.439,267.913 c 0,5.257 -4.268,9.526 -9.526,9.526 h -70.866 c -5.257,0 -9.525,-4.269 -9.525,-9.526 0,0 0,-14.173 0,-14.173 0,-5.257 4.268,-9.526 9.525,-9.526 0,0 70.866,0 70.866,0 5.258,0 9.526,4.269 9.526,9.526 0,0 0,14.173 0,14.173 z m -2.439,0 c 0,3.911 -3.175,7.087 -7.087,7.087 h -70.866 c -3.911,0 -7.086,-3.176 -7.086,-7.087 V 253.74 c 0,-3.911 3.175,-7.087 7.086,-7.087 h 70.866 c 3.912,0 7.087,3.176 7.087,7.087 z"
       style="fill:#69bac9;fill-opacity:1;fill-rule:evenodd;stroke:none"
       id="path126" /><g
       id="g128"
       transform="translate(298.606,266.996)"><text
         transform="scale(1,-1)"
         style="font-variant:normal;font-weight:normal;font-size:11.9573px;font-family:Cochineal;-inkscape-font-specification:Cochineal-Roman;writing-mode:lr-tb;fill:#000000;fill-opacity:1;fill-rule:nonzero;stroke:none"
         id="text132"><tspan
           x="0 6.0276752 10.52362 16.536945 22.564621 28.577948 32.905293"
           y="0"
           sodipodi:role="line"
           id="tspan130">propose</tspan></text></g><g
       id="g134"
       transform="translate(302.839,252.05)"><text
         transform="scale(1,-1)"
         style="font-variant:normal;font-weight:normal;font-size:11.9573px;font-family:Cochineal;-inkscape-font-specification:Cochineal-Roman;writing-mode:lr-tb;fill:#000000;fill-opacity:1;fill-rule:nonzero;stroke:none"
         id="text138"><tspan
           x="0 6.0276752 12.041001 15.210881 21.499226 25.168921"
           y="0"
           sodipodi:role="line"
           id="tspan136">points</tspan></text></g><g
       id="g140"
       transform="translate(241.691,223.224)"><text
         transform="scale(1,-1)"
         style="font-variant:normal;font-weight:normal;font-size:11.9573px;font-family:Cochineal;-inkscape-font-specification:Cochineal-Roman;writing-mode:lr-tb;fill:#000000;fill-opacity:1;fill-rule:nonzero;stroke:none"
         id="text144"><tspan
           x="0 6.0133262 11.896317 14.707479 19.766613 24.775526 28.445221 31.615101 37.1035"
           y="0"
           sodipodi:role="line"
           id="tspan142">objective</tspan></text></g><g
       id="g146"
       transform="translate(242.684,208.277)"><text
         transform="scale(1,-1)"
         style="font-variant:normal;font-weight:normal;font-size:11.9573px;font-family:Cochineal;-inkscape-font-specification:Cochineal-Roman;writing-mode:lr-tb;fill:#000000;fill-opacity:1;fill-rule:nonzero;stroke:none"
         id="text150"><tspan
           x="0 3.6481721 9.733242 16.021585 21.030499 24.700195 27.870075 33.8834"
           y="0"
           sodipodi:role="line"
           id="tspan148">function</tspan></text></g><g
       id="g152"
       transform="translate(218.106,315.058)"><text
         transform="scale(1,-1)"
         style="font-variant:normal;font-weight:normal;font-size:11.9573px;font-family:Cochineal;-inkscape-font-specification:Cochineal-Roman;writing-mode:lr-tb;fill:#000000;fill-opacity:1;fill-rule:nonzero;stroke:none"
         id="text156"><tspan
           x="0 6.0133262 11.896317 14.707479 19.766613 24.775526 28.445221 31.615101 37.1035 44.684429 48.332603 54.417671 60.706017 65.714928 69.384628 72.554504 78.567833"
           y="0"
           sodipodi:role="line"
           id="tspan154">objectivefunction</tspan></text></g><g
       id="g158"
       transform="translate(207.864,300.111)"><text
         transform="scale(1,-1)"
         style="font-variant:normal;font-weight:normal;font-size:11.9573px;font-family:Cochineal;-inkscape-font-specification:Cochineal-Roman;writing-mode:lr-tb;fill:#000000;fill-opacity:1;fill-rule:nonzero;stroke:none"
         id="text162"><tspan
           x="0 10.486552 16.465202 19.479637 24.550728 30.635798 34.963146 38.133026 44.016018 47.185898 50.200333 53.370213 57.039909 65.170876 68.819046 74.904114 81.192459 86.20137 89.871063 93.040947 99.054276"
           y="0"
           sodipodi:role="line"
           id="tspan160">&amp;plausibilityfunction</tspan></text></g><path
       d="m 360,182.886 c 0,3.911 -3.175,7.086 -7.087,7.086 h -70.866 c -3.911,0 -7.086,-3.175 -7.086,-7.086 v -14.174 c 0,-3.911 3.175,-7.086 7.086,-7.086 h 70.866 c 3.912,0 7.087,3.175 7.087,7.086 z"
       style="fill:#ffffff;fill-opacity:1;fill-rule:evenodd;stroke:none"
       id="path164" /><path
       d="m 362.439,182.886 c 0,5.257 -4.268,9.525 -9.526,9.525 0,0 -70.866,0 -70.866,0 -5.257,0 -9.525,-4.268 -9.525,-9.525 0,0 0,-14.174 0,-14.174 0,-5.257 4.268,-9.525 9.525,-9.525 0,0 70.866,0 70.866,0 5.258,0 9.526,4.268 9.526,9.525 0,0 0,14.174 0,14.174 z m -2.439,0 c 0,3.911 -3.175,7.086 -7.087,7.086 h -70.866 c -3.911,0 -7.086,-3.175 -7.086,-7.086 v -14.174 c 0,-3.911 3.175,-7.086 7.086,-7.086 h 70.866 c 3.912,0 7.087,3.175 7.087,7.086 z"
       style="fill:#69bac9;fill-opacity:1;fill-rule:evenodd;stroke:none"
       id="path166" /><g
       id="g168"
       transform="translate(307.371,180.54)"><text
         transform="scale(1,-1)"
         style="font-variant:normal;font-weight:normal;font-size:11.9573px;font-family:Cochineal;-inkscape-font-specification:Cochineal-Roman;writing-mode:lr-tb;fill:#000000;fill-opacity:1;fill-rule:nonzero;stroke:none"
         id="text172"><tspan
           x="0 4.3273468 9.3864803 12.400916 17.460049 22.468962"
           y="0"
           sodipodi:role="line"
           id="tspan170">select</tspan></text></g><g
       id="g174"
       transform="translate(305.691,165.594)"><text
         transform="scale(1,-1)"
         style="font-variant:normal;font-weight:normal;font-size:11.9573px;font-family:Cochineal;-inkscape-font-specification:Cochineal-Roman;writing-mode:lr-tb;fill:#000000;fill-opacity:1;fill-rule:nonzero;stroke:none"
         id="text178"><tspan
           x="0 6.0276752 12.041001 15.210881 21.499226 25.168921"
           y="0"
           sodipodi:role="line"
           id="tspan176">points</tspan></text></g><path
       d="m 360,97.8115 c 0,3.9115 -3.175,7.0865 -7.087,7.0865 h -70.866 c -3.911,0 -7.086,-3.175 -7.086,-7.0865 V 83.6383 c 0,-3.9112 3.175,-7.0866 7.086,-7.0866 h 70.866 c 3.912,0 7.087,3.1754 7.087,7.0866 z"
       style="fill:#ffffff;fill-opacity:1;fill-rule:evenodd;stroke:none"
       id="path180" /><path
       d="m 362.439,97.8115 c 0,5.2575 -4.268,9.5255 -9.526,9.5255 0,0 -70.866,0 -70.866,0 -5.257,0 -9.525,-4.268 -9.525,-9.5255 0,0 0,-14.1732 0,-14.1732 0,-5.2574 4.268,-9.5257 9.525,-9.5257 h 70.866 c 5.258,0 9.526,4.2683 9.526,9.5257 0,0 0,14.1732 0,14.1732 z m -2.439,0 c 0,3.9115 -3.175,7.0865 -7.087,7.0865 h -70.866 c -3.911,0 -7.086,-3.175 -7.086,-7.0865 V 83.6383 c 0,-3.9112 3.175,-7.0866 7.086,-7.0866 h 70.866 c 3.912,0 7.087,3.1754 7.087,7.0866 z"
       style="fill:#69bac9;fill-opacity:1;fill-rule:evenodd;stroke:none"
       id="path182" /><g
       id="g184"
       transform="translate(300.076,95.3964)"><text
         transform="scale(1,-1)"
         style="font-variant:normal;font-weight:normal;font-size:11.9573px;font-family:Cochineal;-inkscape-font-specification:Cochineal-Roman;writing-mode:lr-tb;fill:#000000;fill-opacity:1;fill-rule:nonzero;stroke:none"
         id="text188"><tspan
           x="0 5.0710907 11.098766 17.12644 22.185574 28.473919"
           y="0"
           sodipodi:role="line"
           id="tspan186">append</tspan></text></g><g
       id="g190"
       transform="translate(302.599,80.4497)"><text
         transform="scale(1,-1)"
         style="font-variant:normal;font-weight:normal;font-size:11.9573px;font-family:Cochineal;-inkscape-font-specification:Cochineal-Roman;writing-mode:lr-tb;fill:#000000;fill-opacity:1;fill-rule:nonzero;stroke:none"
         id="text194"><tspan
           x="0 6.0276752 12.041001 15.210881 21.499226 25.168921"
           y="0"
           sodipodi:role="line"
           id="tspan192">points</tspan></text></g><path
       d="m 246.614,97.8115 c 0,3.9115 -3.175,7.0865 -7.086,7.0865 h -70.867 c -3.911,0 -7.086,-3.175 -7.086,-7.0865 V 83.6383 c 0,-3.9112 3.175,-7.0866 7.086,-7.0866 h 70.867 c 3.911,0 7.086,3.1754 7.086,7.0866 z"
       style="fill:#ffffff;fill-opacity:1;fill-rule:evenodd;stroke:none"
       id="path196" /><path
       d="m 249.053,97.8115 c 0,5.2575 -4.268,9.5255 -9.525,9.5255 0,0 -70.867,0 -70.867,0 -5.257,0 -9.525,-4.268 -9.525,-9.5255 0,0 0,-14.1732 0,-14.1732 0,-5.2574 4.268,-9.5257 9.525,-9.5257 h 70.867 c 5.257,0 9.525,4.2683 9.525,9.5257 0,0 0,14.1732 0,14.1732 z m -2.439,0 c 0,3.9115 -3.175,7.0865 -7.086,7.0865 h -70.867 c -3.911,0 -7.086,-3.175 -7.086,-7.0865 V 83.6383 c 0,-3.9112 3.175,-7.0866 7.086,-7.0866 h 70.867 c 3.911,0 7.086,3.1754 7.086,7.0866 z"
       style="fill:#69bac9;fill-opacity:1;fill-rule:evenodd;stroke:none"
       id="path198" /><g
       id="g200"
       transform="translate(188.203,88.0622)"><text
         transform="scale(1,-1)"
         style="font-variant:normal;font-weight:normal;font-size:11.9573px;font-family:Cochineal;-inkscape-font-specification:Cochineal-Roman;writing-mode:lr-tb;fill:#000000;fill-opacity:1;fill-rule:nonzero;stroke:none"
         id="text204"><tspan
           x="0 6.0850701 12.112745 18.18825 23.25934 26.929035"
           y="0"
           sodipodi:role="line"
           id="tspan202">update</tspan></text></g><path
       d="m 133.228,97.8115 c 0,3.9115 -3.175,7.0865 -7.086,7.0865 H 55.2756 c -3.9112,0 -7.0866,-3.175 -7.0866,-7.0865 V 83.6383 c 0,-3.9112 3.1754,-7.0866 7.0866,-7.0866 h 70.8664 c 3.911,0 7.086,3.1754 7.086,7.0866 z"
       style="fill:#ffffff;fill-opacity:1;fill-rule:evenodd;stroke:none"
       id="path206" /><path
       d="m 135.667,97.8115 c 0,5.2575 -4.268,9.5255 -9.525,9.5255 0,0 -70.8664,0 -70.8664,0 -5.2574,0 -9.5256,-4.268 -9.5256,-9.5255 0,0 0,-14.1732 0,-14.1732 0,-5.2574 4.2682,-9.5257 9.5256,-9.5257 h 70.8664 c 5.257,0 9.525,4.2683 9.525,9.5257 z m -2.439,0 c 0,3.9115 -3.175,7.0865 -7.086,7.0865 H 55.2756 c -3.9112,0 -7.0866,-3.175 -7.0866,-7.0865 V 83.6383 c 0,-3.9112 3.1754,-7.0866 7.0866,-7.0866 h 70.8664 c 3.911,0 7.086,3.1754 7.086,7.0866 z"
       style="fill:#69bac9;fill-opacity:1;fill-rule:evenodd;stroke:none"
       id="path208" /><g
       id="g210"
       transform="translate(74.3033,86.7371)"><text
         transform="scale(1,-1)"
         style="font-variant:normal;font-weight:normal;font-size:11.9573px;font-family:Cochineal;-inkscape-font-specification:Cochineal-Roman;writing-mode:lr-tb;fill:#000000;fill-opacity:1;fill-rule:nonzero;stroke:none"
         id="text214"><tspan
           x="0 4.3273468 10.412416 16.295408 25.656778 28.826658"
           y="0"
           sodipodi:role="line"
           id="tspan212">submit</tspan></text></g><path
       d="m 133.228,182.886 c 0,3.911 -3.175,7.086 -7.086,7.086 H 55.2756 c -3.9112,0 -7.0866,-3.175 -7.0866,-7.086 v -14.174 c 0,-3.911 3.1754,-7.086 7.0866,-7.086 h 70.8664 c 3.911,0 7.086,3.175 7.086,7.086 z"
       style="fill:#ffffff;fill-opacity:1;fill-rule:evenodd;stroke:none"
       id="path216" /><path
       d="m 135.667,182.886 c 0,5.257 -4.268,9.525 -9.525,9.525 0,0 -70.8664,0 -70.8664,0 -5.2574,0 -9.5256,-4.268 -9.5256,-9.525 0,0 0,-14.174 0,-14.174 0,-5.257 4.2682,-9.525 9.5256,-9.525 0,0 70.8664,0 70.8664,0 5.257,0 9.525,4.268 9.525,9.525 z m -2.439,0 c 0,3.911 -3.175,7.086 -7.086,7.086 H 55.2756 c -3.9112,0 -7.0866,-3.175 -7.0866,-7.086 v -14.174 c 0,-3.911 3.1754,-7.086 7.0866,-7.086 h 70.8664 c 3.911,0 7.086,3.175 7.086,7.086 z"
       style="fill:#69bac9;fill-opacity:1;fill-rule:evenodd;stroke:none"
       id="path218" /><g
       id="g220"
       transform="translate(59.5036,171.56)"><text
         transform="scale(1,-1)"
         style="font-variant:normal;font-weight:normal;font-size:11.9573px;font-family:Cochineal;-inkscape-font-specification:Cochineal-Roman;writing-mode:lr-tb;fill:#000000;fill-opacity:1;fill-rule:nonzero;stroke:none"
         id="text224"><tspan
           x="0 8.5016403 13.572731 16.742611 20.412308 24.944124 29.440069 34.499203 38.168896 42.713867 45.883747 50.942883 56.431282"
           y="0"
           sodipodi:role="line"
           id="tspan222">wait/retrieve</tspan></text></g><path
       d="m 388.346,358.634 c 0,3.911 -3.175,7.086 -7.086,7.086 h -70.866 c -3.912,0 -7.087,-3.175 -7.087,-7.086 V 344.46 c 0,-3.911 3.175,-7.086 7.087,-7.086 h 70.866 c 3.911,0 7.086,3.175 7.086,7.086 z"
       style="fill:#ffffff;fill-opacity:1;fill-rule:evenodd;stroke:none"
       id="path226" /><path
       d="m 390.785,358.634 c 0,5.257 -4.268,9.525 -9.525,9.525 h -70.866 c -5.258,0 -9.526,-4.268 -9.526,-9.525 0,0 0,-14.174 0,-14.174 0,-5.257 4.268,-9.525 9.526,-9.525 0,0 70.866,0 70.866,0 5.257,0 9.525,4.268 9.525,9.525 z m -2.439,0 c 0,3.911 -3.175,7.086 -7.086,7.086 h -70.866 c -3.912,0 -7.087,-3.175 -7.087,-7.086 V 344.46 c 0,-3.911 3.175,-7.086 7.087,-7.086 h 70.866 c 3.911,0 7.086,3.175 7.086,7.086 z"
       style="fill:#69bac9;fill-opacity:1;fill-rule:evenodd;stroke:none"
       id="path228" /><g
       id="g230"
       transform="translate(332.064,355.033)"><text
         transform="scale(1,-1)"
         style="font-variant:normal;font-weight:normal;font-size:11.9573px;font-family:Cochineal;-inkscape-font-specification:Cochineal-Roman;writing-mode:lr-tb;fill:#000000;fill-opacity:1;fill-rule:nonzero;stroke:none"
         id="text234"><tspan
           x="0 6.0755043 12.08883 18.377174 23.436308"
           y="0"
           sodipodi:role="line"
           id="tspan232">done?</tspan></text></g><g
       id="g236"
       transform="translate(335.669,340.086)"><text
         transform="scale(1,-1)"
         style="font-variant:normal;font-weight:normal;font-size:11.9573px;font-family:Cochineal;-inkscape-font-specification:Cochineal-Roman;writing-mode:lr-tb;fill:#000000;fill-opacity:1;fill-rule:nonzero;stroke:none"
         id="text240"><tspan
           x="0 5.0591335 10.728089 13.89797 17.567665"
           y="0"
           sodipodi:role="line"
           id="tspan238">exit!</tspan></text></g><path
       d="m 94.4587,339.205 -3.75,-7.5 -3.75,7.5 c 1.875,-1.875 5.625,-1.875 7.5,0 z"
       style="fill:#000000;fill-opacity:1;fill-rule:evenodd;stroke:none"
       id="path242" /><path
       d="M 90.7087,360.051 V 337.705"
       style="fill:none;stroke:#000000;stroke-width:2;stroke-linecap:butt;stroke-linejoin:miter;stroke-miterlimit:10;stroke-dasharray:none;stroke-opacity:1"
       id="path244" /><path
       d="m 79.3701,345.878 c 11.3386,0 11.3386,0 11.3386,-11.339"
       style="fill:none;stroke:#000000;stroke-width:2;stroke-linecap:butt;stroke-linejoin:miter;stroke-miterlimit:10;stroke-dasharray:none;stroke-opacity:1"
       id="path246" /><g
       id="g248"><g
         id="g250"
         clip-path="url(#clipPath254)"><path
           d="m 59.3914,350.083 h 17.2802 v 2.4686 H 59.3914 Z"
           style="fill:#e7c279;fill-opacity:1;fill-rule:evenodd;stroke:none"
           id="path256" /><path
           d="m 59.3914,345.146 h 17.2802 v 2.4686 H 59.3914 Z"
           style="fill:#e7c279;fill-opacity:1;fill-rule:evenodd;stroke:none"
           id="path258" /><path
           d="m 59.3914,340.209 h 17.2802 v 2.4686 H 59.3914 Z"
           style="fill:#e7c279;fill-opacity:1;fill-rule:evenodd;stroke:none"
           id="path260" /></g></g><path
       d="m 152.575,265.326 9,-4.5 -9,-4.5 c 2.25,2.25 2.25,6.75 0,9 z"
       style="fill:#000000;fill-opacity:1;fill-rule:evenodd;stroke:none"
       id="path262" /><path
       d="m 133.228,260.826 h 21.147"
       style="fill:none;stroke:#000000;stroke-width:2;stroke-linecap:butt;stroke-linejoin:miter;stroke-miterlimit:10;stroke-dasharray:none;stroke-opacity:1"
       id="path264" /><path
       d="m 255.614,86.2249 -9,4.5 9,4.5 c -2.25,-2.25 -2.25,-6.75 0,-9 z"
       style="fill:#000000;fill-opacity:1;fill-rule:evenodd;stroke:none"
       id="path266" /><path
       d="M 274.961,90.7249 H 253.814"
       style="fill:none;stroke:#000000;stroke-width:2;stroke-linecap:butt;stroke-linejoin:miter;stroke-miterlimit:10;stroke-dasharray:none;stroke-opacity:1"
       id="path268" /><path
       d="m 263.622,102.063 c 0,-11.3381 0,-11.3381 -11.339,-11.3381"
       style="fill:none;stroke:#000000;stroke-width:2;stroke-linecap:butt;stroke-linejoin:miter;stroke-miterlimit:10;stroke-dasharray:none;stroke-opacity:1"
       id="path270" /><path
       d="m 264.436,120.205 c -0.541,0.057 -1.087,0.057 -1.628,0 l -0.129,-2.038 c -0.451,-0.075 -0.892,-0.205 -1.313,-0.385 l -1.209,1.644 c -0.487,-0.244 -0.946,-0.539 -1.37,-0.88 l 0.993,-1.784 c -0.339,-0.307 -0.64,-0.655 -0.896,-1.034 l -1.907,0.73 c -0.277,-0.469 -0.503,-0.965 -0.676,-1.482 l 1.8,-0.963 c -0.119,-0.442 -0.184,-0.897 -0.195,-1.354 l -1.998,-0.418 c 0.02,-0.544 0.098,-1.084 0.231,-1.611 l 2.035,0.162 c 0.139,-0.436 0.33,-0.854 0.569,-1.244 l -1.456,-1.432 c 0.311,-0.446 0.669,-0.859 1.067,-1.23 l 1.624,1.237 c 0.352,-0.292 0.739,-0.541 1.151,-0.74 l -0.451,-1.991 c 0.503,-0.208 1.027,-0.362 1.563,-0.459 l 0.697,1.919 c 0.454,-0.055 0.914,-0.055 1.368,0 l 0.698,-1.919 c 0.535,0.097 1.059,0.251 1.562,0.459 l -0.451,1.991 c 0.412,0.199 0.799,0.448 1.151,0.74 l 1.624,-1.237 c 0.398,0.371 0.756,0.784 1.067,1.23 l -1.456,1.432 c 0.239,0.39 0.43,0.808 0.569,1.244 l 2.035,-0.162 c 0.134,0.527 0.211,1.067 0.231,1.611 l -1.998,0.418 c -0.011,0.457 -0.076,0.912 -0.195,1.354 l 1.8,0.963 c -0.172,0.517 -0.399,1.013 -0.676,1.482 l -1.907,-0.73 c -0.256,0.379 -0.557,0.727 -0.896,1.034 l 0.993,1.784 c -0.424,0.341 -0.883,0.636 -1.37,0.88 l -1.209,-1.644 c -0.421,0.18 -0.862,0.31 -1.313,0.385 z m -0.814,-4.449 c 1.782,0 3.228,-1.447 3.228,-3.228 0,-1.781 -1.446,-3.228 -3.228,-3.228 -1.781,0 -3.228,1.447 -3.228,3.228 0,1.781 1.447,3.228 3.228,3.228 z"
       style="fill:#1f91c2;fill-opacity:1;fill-rule:evenodd;stroke:none"
       id="path272" /><path
       d="m 86.2087,152.626 4.5,9 4.5,-9 c -2.25,2.25 -6.75,2.25 -9,0 z"
       style="fill:#000000;fill-opacity:1;fill-rule:evenodd;stroke:none"
       id="path274" /><path
       d="m 90.7087,144.618 v 9.808"
       style="fill:none;stroke:#000000;stroke-width:2;stroke-linecap:butt;stroke-linejoin:miter;stroke-miterlimit:10;stroke-dasharray:none;stroke-opacity:1"
       id="path276" /><path
       d="m 86.2087,112.941 4.5,9 4.5,-9 c -2.25,2.25 -6.75,2.25 -9,0 z"
       style="fill:#000000;fill-opacity:1;fill-rule:evenodd;stroke:none"
       id="path278" /><path
       d="m 90.7087,104.933 v 9.808"
       style="fill:none;stroke:#000000;stroke-width:2;stroke-linecap:butt;stroke-linejoin:miter;stroke-miterlimit:10;stroke-dasharray:none;stroke-opacity:1"
       id="path280" /><path
       d="m 89.8944,125.589 c 0.5413,-0.057 1.0872,-0.057 1.6285,0 l 0.1285,2.038 c 0.4515,0.075 0.8923,0.205 1.3129,0.385 l 1.2097,-1.644 c 0.4864,0.244 0.9456,0.539 1.3699,0.88 l -0.9934,1.784 c 0.339,0.307 0.6399,0.655 0.8961,1.034 l 1.9067,-0.73 c 0.2771,0.469 0.5039,0.966 0.6765,1.482 l -1.8,0.963 c 0.1189,0.442 0.1843,0.897 0.1948,1.354 l 1.9984,0.418 c -0.0202,0.544 -0.0979,1.084 -0.2317,1.612 l -2.0351,-0.163 c -0.1389,0.436 -0.3298,0.854 -0.5684,1.244 l 1.4557,1.432 c -0.3111,0.447 -0.6686,0.859 -1.0664,1.231 l -1.624,-1.238 c -0.3527,0.292 -0.7392,0.541 -1.1511,0.74 l 0.4507,1.991 c -0.5032,0.208 -1.027,0.362 -1.5625,0.459 l -0.6974,-1.919 c -0.4544,0.055 -0.9138,0.055 -1.3683,0 l -0.6973,1.919 c -0.5356,-0.097 -1.0593,-0.251 -1.5626,-0.459 l 0.4508,-1.991 c -0.412,-0.199 -0.7984,-0.448 -1.1511,-0.74 l -1.624,1.238 c -0.3979,-0.372 -0.7554,-0.784 -1.0665,-1.231 l 1.4557,-1.432 c -0.2386,-0.39 -0.4294,-0.808 -0.5684,-1.244 l -2.0351,0.163 c -0.1338,-0.528 -0.2115,-1.068 -0.2317,-1.612 l 1.9985,-0.418 c 0.0104,-0.457 0.0758,-0.912 0.1947,-1.354 l -1.8,-0.963 c 0.1726,-0.516 0.3994,-1.013 0.6765,-1.482 l 1.9068,0.73 c 0.2562,-0.379 0.557,-0.727 0.896,-1.034 l -0.9934,-1.784 c 0.4243,-0.341 0.8835,-0.636 1.3699,-0.88 l 1.2097,1.644 c 0.4206,-0.18 0.8614,-0.31 1.3129,-0.385 z m 0.8143,4.449 c -1.7815,0 -3.2278,1.447 -3.2278,3.228 0,1.782 1.4463,3.228 3.2278,3.228 1.7814,0 3.2278,-1.446 3.2278,-3.228 0,-1.781 -1.4464,-3.228 -3.2278,-3.228 z"
       style="fill:#1f91c2;fill-opacity:1;fill-rule:evenodd;stroke:none"
       id="path282" /><path
       d="m 142.228,86.2249 -9,4.5 9,4.5 c -2.25,-2.25 -2.25,-6.75 0,-9 z"
       style="fill:#000000;fill-opacity:1;fill-rule:evenodd;stroke:none"
       id="path284" /><path
       d="M 161.575,90.7249 H 140.428"
       style="fill:none;stroke:#000000;stroke-width:2;stroke-linecap:butt;stroke-linejoin:miter;stroke-miterlimit:10;stroke-dasharray:none;stroke-opacity:1"
       id="path286" /><path
       d="m 321.98,198.972 -4.5,-9 -4.5,9 c 2.25,-2.25 6.75,-2.25 9,0 z"
       style="fill:#000000;fill-opacity:1;fill-rule:evenodd;stroke:none"
       id="path288" /><path
       d="M 317.48,246.653 V 197.172"
       style="fill:none;stroke:#000000;stroke-width:2;stroke-linecap:butt;stroke-linejoin:miter;stroke-miterlimit:10;stroke-dasharray:none;stroke-opacity:1"
       id="path290" /><path
       d="m 306.142,218.313 c 11.338,0 11.338,0 11.338,-11.339"
       style="fill:none;stroke:#000000;stroke-width:2;stroke-linecap:butt;stroke-linejoin:miter;stroke-miterlimit:10;stroke-dasharray:none;stroke-opacity:1"
       id="path292" /><path
       d="m 291.595,224.219 c 0.265,0.856 1.162,1.522 2.204,1.522 1.042,0 1.938,-0.666 2.204,-1.522 0.753,0.485 1.868,0.419 2.667,-0.251 0.798,-0.669 1.057,-1.756 0.71,-2.582 0.889,-0.113 1.7,-0.881 1.881,-1.907 0.181,-1.026 -0.319,-2.024 -1.116,-2.434 0.609,-0.658 0.737,-1.768 0.216,-2.67 -0.521,-0.903 -1.546,-1.346 -2.42,-1.148 0.043,-0.895 -0.572,-1.828 -1.551,-2.184 -0.979,-0.356 -2.049,-0.037 -2.591,0.676 -0.542,-0.713 -1.613,-1.032 -2.592,-0.676 -0.979,0.356 -1.594,1.289 -1.551,2.184 -0.874,-0.198 -1.899,0.245 -2.42,1.148 -0.521,0.902 -0.392,2.012 0.216,2.67 -0.797,0.41 -1.297,1.408 -1.116,2.434 0.181,1.026 0.993,1.794 1.882,1.907 -0.347,0.826 -0.088,1.913 0.71,2.582 0.798,0.67 1.913,0.736 2.667,0.251 z"
       style="fill:#e9634d;fill-opacity:1;fill-rule:evenodd;stroke:none"
       id="path294" /><path
       d="m 321.98,113.863 -4.5,-9 -4.5,9 c 2.25,-2.25 6.75,-2.25 9,0 z"
       style="fill:#000000;fill-opacity:1;fill-rule:evenodd;stroke:none"
       id="path296" /><path
       d="M 317.48,161.544 V 112.063"
       style="fill:none;stroke:#000000;stroke-width:2;stroke-linecap:butt;stroke-linejoin:miter;stroke-miterlimit:10;stroke-dasharray:none;stroke-opacity:1"
       id="path298" /><path
       d="m 306.142,133.204 c 11.338,0 11.338,0 11.338,-11.339"
       style="fill:none;stroke:#000000;stroke-width:2;stroke-linecap:butt;stroke-linejoin:miter;stroke-miterlimit:10;stroke-dasharray:none;stroke-opacity:1"
       id="path300" /><g
       id="g302"><g
         id="g304"
         clip-path="url(#clipPath308)"><path
           d="m 286.487,136.907 h 17.2802 v 2.4686 H 286.487 Z"
           style="fill:#e7c279;fill-opacity:1;fill-rule:evenodd;stroke:none"
           id="path310" /><path
           d="m 286.487,131.969 h 17.2802 v 2.4686 H 286.487 Z"
           style="fill:#e7c279;fill-opacity:1;fill-rule:evenodd;stroke:none"
           id="path312" /><path
           d="m 286.487,127.032 h 17.2802 v 2.4686 H 286.487 Z"
           style="fill:#e7c279;fill-opacity:1;fill-rule:evenodd;stroke:none"
           id="path314" /></g></g><path
       d="m 86.2087,237.653 4.5,9 4.5,-9 c -2.25,2.25 -6.75,2.25 -9,0 z"
       style="fill:#000000;fill-opacity:1;fill-rule:evenodd;stroke:none"
       id="path316" /><path
       d="m 90.7087,189.972 v 49.481"
       style="fill:none;stroke:#000000;stroke-width:2;stroke-linecap:butt;stroke-linejoin:miter;stroke-miterlimit:10;stroke-dasharray:none;stroke-opacity:1"
       id="path318" /><path
       d="m 68.9942,285.507 7.5412,3.666 -7.4578,3.833 c 1.854,-1.896 1.8123,-5.645 -0.0834,-7.499 z"
       style="fill:#000000;fill-opacity:1;fill-rule:evenodd;stroke:none"
       id="path320" /><path
       d="m 70.5358,289.24 c -8.1736,0.331 -8.1736,2.309 -8.1736,14.106"
       style="fill:none;stroke:#000000;stroke-width:2;stroke-linecap:butt;stroke-linejoin:miter;stroke-miterlimit:10;stroke-dasharray:none;stroke-opacity:1"
       id="path322" /><path
       d="m 122.721,282.829 -3.666,-7.542 -3.833,7.458 c 1.896,-1.854 5.645,-1.812 7.499,0.084 z"
       style="fill:#000000;fill-opacity:1;fill-rule:evenodd;stroke:none"
       id="path324" /><path
       d="m 104.882,289.461 c 11.797,0 13.775,0 14.106,-8.174"
       style="fill:none;stroke:#000000;stroke-width:2;stroke-linecap:butt;stroke-linejoin:miter;stroke-miterlimit:10;stroke-dasharray:none;stroke-opacity:1"
       id="path326" /><path
       d="m 91.5229,296.228 c -0.5413,0.058 -1.0872,0.058 -1.6285,0 l -0.1285,-2.037 c -0.4515,-0.076 -0.8923,-0.205 -1.3129,-0.386 l -1.2097,1.645 c -0.4864,-0.244 -0.9456,-0.539 -1.3699,-0.88 l 0.9934,-1.784 c -0.339,-0.308 -0.6398,-0.655 -0.896,-1.034 l -1.9068,0.729 C 83.7869,292.013 83.5601,291.516 83.3875,291 l 1.8,-0.963 c -0.1189,-0.442 -0.1843,-0.897 -0.1947,-1.355 l -1.9985,-0.417 c 0.0202,-0.544 0.0979,-1.084 0.2317,-1.612 l 2.0351,0.163 c 0.139,-0.436 0.3298,-0.854 0.5684,-1.245 l -1.4557,-1.431 c 0.3111,-0.447 0.6686,-0.859 1.0665,-1.231 l 1.624,1.237 c 0.3527,-0.291 0.7391,-0.54 1.1511,-0.739 l -0.4508,-1.991 c 0.5033,-0.208 1.027,-0.362 1.5626,-0.459 l 0.6973,1.918 c 0.4545,-0.054 0.9139,-0.054 1.3683,0 l 0.6974,-1.918 c 0.5355,0.097 1.0593,0.251 1.5625,0.459 l -0.4507,1.991 c 0.4119,0.199 0.7984,0.448 1.1511,0.739 l 1.624,-1.237 c 0.3978,0.372 0.7553,0.784 1.0664,1.231 l -1.4557,1.431 c 0.2386,0.391 0.4295,0.809 0.5684,1.245 l 2.0351,-0.163 c 0.1338,0.528 0.2115,1.068 0.2317,1.612 l -1.9984,0.417 c -0.0105,0.458 -0.0759,0.913 -0.1948,1.355 l 1.8,0.963 c -0.1726,0.516 -0.3994,1.013 -0.6765,1.481 l -1.9067,-0.729 c -0.2562,0.379 -0.5571,0.726 -0.8961,1.034 l 0.9934,1.784 c -0.4243,0.341 -0.8835,0.636 -1.3699,0.88 l -1.2097,-1.645 c -0.4206,0.181 -0.8614,0.31 -1.3129,0.386 z m -0.8142,-4.448 c 1.7814,0 3.2278,-1.447 3.2278,-3.228 0,-1.782 -1.4464,-3.228 -3.2278,-3.228 -1.7815,0 -3.2278,1.446 -3.2278,3.228 0,1.781 1.4463,3.228 3.2278,3.228 z"
       style="fill:#1f91c2;fill-opacity:1;fill-rule:evenodd;stroke:none"
       id="path328" /><path
       d="m 289.966,282.541 -3.667,-7.541 -3.833,7.458 c 1.896,-1.855 5.646,-1.813 7.5,0.083 z"
       style="fill:#000000;fill-opacity:1;fill-rule:evenodd;stroke:none"
       id="path330" /><path
       d="m 272.126,289.173 c 11.797,0 13.775,0 14.106,-8.174"
       style="fill:none;stroke:#000000;stroke-width:2;stroke-linecap:butt;stroke-linejoin:miter;stroke-miterlimit:10;stroke-dasharray:none;stroke-opacity:1"
       id="path332" /><path
       d="m 241.908,292.851 7.541,-3.666 -7.458,-3.833 c 1.854,1.895 1.812,5.645 -0.083,7.499 z"
       style="fill:#000000;fill-opacity:1;fill-rule:evenodd;stroke:none"
       id="path334" /><path
       d="m 235.276,275.012 c 0,11.797 0,13.775 8.173,14.106"
       style="fill:none;stroke:#000000;stroke-width:2;stroke-linecap:butt;stroke-linejoin:miter;stroke-miterlimit:10;stroke-dasharray:none;stroke-opacity:1"
       id="path336" /><path
       d="m 257.579,294.749 c 0.265,0.857 1.162,1.522 2.204,1.522 1.042,0 1.939,-0.665 2.204,-1.522 0.754,0.486 1.869,0.419 2.667,-0.25 0.798,-0.67 1.057,-1.757 0.71,-2.583 0.889,-0.113 1.701,-0.88 1.881,-1.906 0.181,-1.026 -0.319,-2.025 -1.116,-2.435 0.609,-0.658 0.737,-1.768 0.216,-2.67 -0.521,-0.902 -1.546,-1.346 -2.42,-1.148 0.044,-0.895 -0.571,-1.827 -1.55,-2.184 -0.979,-0.356 -2.05,-0.037 -2.592,0.677 -0.542,-0.714 -1.613,-1.033 -2.592,-0.677 -0.979,0.357 -1.594,1.289 -1.55,2.184 -0.874,-0.198 -1.9,0.246 -2.42,1.148 -0.521,0.902 -0.393,2.012 0.216,2.67 -0.797,0.41 -1.297,1.409 -1.117,2.435 0.181,1.026 0.993,1.793 1.882,1.906 -0.347,0.826 -0.088,1.913 0.71,2.583 0.798,0.669 1.913,0.736 2.667,0.25 z"
       style="fill:#e9634d;fill-opacity:1;fill-rule:evenodd;stroke:none"
       id="path338" /><path
       d="m 295.807,355.297 7.5,-3.75 -7.5,-3.75 c 1.875,1.875 1.875,5.625 0,7.5 z"
       style="fill:#000000;fill-opacity:1;fill-rule:evenodd;stroke:none"
       id="path340" /><path
       d="m 138.898,260.826 c 5.669,0 5.669,2.847 5.669,8.516 v 68.02 c 0,11.35 5.669,14.185 17.008,14.185 h 135.732"
       style="fill:none;stroke:#000000;stroke-width:2;stroke-linecap:butt;stroke-linejoin:miter;stroke-miterlimit:10;stroke-dasharray:2, 2.875, 0.0001, 0.0001;stroke-dashoffset:0;stroke-opacity:1"
       id="path342" /></g></svg>
