<?xml version="1.0" encoding="UTF-8" standalone="no"?>
<!DOCTYPE svg PUBLIC "-//W3C//DTD SVG 1.1//EN" "http://www.w3.org/Graphics/SVG/1.1/DTD/svg11.dtd">
<svg width="100%" height="100%" viewBox="0 0 1701 1701" version="1.1" xmlns="http://www.w3.org/2000/svg" xmlns:xlink="http://www.w3.org/1999/xlink" xml:space="preserve" xmlns:serif="http://www.serif.com/" style="fill-rule:evenodd;clip-rule:evenodd;stroke-linecap:round;stroke-linejoin:round;stroke-miterlimit:1.5;">
    <g transform="matrix(1,0,0,1,0,-35.4331)">
        <g transform="matrix(1,0,0,1,40.5307,-8.40837)">
            <g>
                <g transform="matrix(0.533333,0,0,0.533333,-252.522,1456.18)">
                    <rect x="767.717" y="177.165" width="177.165" height="177.165" style="fill:none;"/>
                    <clipPath id="_clip1">
                        <rect x="767.717" y="177.165" width="177.165" height="177.165"/>
                    </clipPath>
                    <g clip-path="url(#_clip1)">
                        <g transform="matrix(1.5,0,0,1.5,-472.441,-177.165)">
                            <rect x="803.15" y="236.22" width="165.354" height="23.622" style="fill:rgb(231,194,121);"/>
                        </g>
                        <g transform="matrix(1.5,0,0,1.5,-472.441,-177.165)">
                            <rect x="803.15" y="283.465" width="165.354" height="23.622" style="fill:rgb(231,194,121);"/>
                        </g>
                        <g transform="matrix(1.5,0,0,1.5,-472.441,-177.165)">
                            <rect x="803.15" y="330.709" width="165.354" height="23.622" style="fill:rgb(231,194,121);"/>
                        </g>
                    </g>
                </g>
                <g transform="matrix(1,0,0,1,128.361,1411.35)">
                    <text x="155.38px" y="177.165px" style="font-family:'Roboto-Regular', 'Roboto';font-size:41.489px;">Halt<tspan x="230.74px " y="177.165px ">o</tspan>n-</text>
                    <text x="155.38px" y="218.654px" style="font-family:'Roboto-Regular', 'Roboto';font-size:41.489px;">Sequenz</text>
                </g>
            </g>
            <g transform="matrix(1,0,0,1,-6.01443,0)">
                <g transform="matrix(1.00069,0,0,1.00069,-4.97007,1166.5)">
                    <path d="M726.701,378.282C722.56,377.843 718.385,377.843 714.244,378.282L713.26,393.869C709.807,394.446 706.435,395.436 703.217,396.818L693.963,384.237C690.242,386.106 686.729,388.364 683.483,390.972L691.083,404.616C688.489,406.969 686.188,409.625 684.228,412.527L669.641,406.946C667.521,410.531 665.787,414.329 664.466,418.278L678.236,425.648C677.326,429.029 676.826,432.508 676.746,436.009L661.458,439.2C661.613,443.361 662.207,447.495 663.231,451.531L678.799,450.286C679.862,453.622 681.322,456.819 683.147,459.807L672.011,470.758C674.391,474.175 677.126,477.331 680.17,480.172L692.593,470.708C695.291,472.94 698.248,474.841 701.399,476.368L697.951,491.6C701.8,493.188 705.807,494.364 709.904,495.11L715.239,480.431C718.715,480.85 722.23,480.85 725.706,480.431L731.041,495.11C735.138,494.364 739.144,493.188 742.994,491.6L739.546,476.368C742.697,474.841 745.654,472.94 748.352,470.708L760.775,480.172C763.819,477.331 766.554,474.175 768.933,470.758L757.798,459.807C759.623,456.819 761.083,453.622 762.146,450.286L777.714,451.531C778.738,447.495 779.332,443.361 779.487,439.2L764.199,436.009C764.119,432.508 763.619,429.029 762.709,425.648L776.479,418.278C775.158,414.329 773.423,410.531 771.304,406.946L756.717,412.527C754.757,409.625 752.456,406.969 749.862,404.616L757.462,390.972C754.216,388.364 750.703,386.106 746.982,384.237L737.728,396.818C734.51,395.436 731.138,394.446 727.684,393.869L726.701,378.282ZM720.472,412.315C734.101,412.315 745.165,423.38 745.165,437.008C745.165,450.636 734.101,461.7 720.472,461.7C706.844,461.7 695.78,450.636 695.78,437.008C695.78,423.38 706.844,412.315 720.472,412.315Z" style="fill:rgb(31,145,194);"/>
                </g>
                <g transform="matrix(1,0,0,1,675.6,1420.99)">
                    <text x="136.864px" y="177.165px" style="font-family:'Roboto-Regular', 'Roboto';font-size:41.489px;">Modell auf</text>
                    <text x="136.854px" y="218.654px" style="font-family:'Roboto-Regular', 'Roboto';font-size:41.489px;">PC-Cluster</text>
                </g>
            </g>
            <g>
                <g transform="matrix(0.81856,0,0,0.81856,469.356,1488.5)">
                    <path d="M947.892,85.1C950.373,77.094 958.76,70.866 968.504,70.866C978.247,70.866 986.634,77.094 989.116,85.1C996.164,80.563 1006.59,81.183 1014.06,87.446C1021.52,93.709 1023.94,103.871 1020.7,111.599C1029.01,112.653 1036.6,119.831 1038.29,129.427C1039.99,139.022 1035.31,148.363 1027.86,152.197C1033.55,158.35 1034.75,168.727 1029.88,177.165C1025,185.603 1015.42,189.753 1007.24,187.899C1007.65,196.271 1001.9,204.992 992.742,208.325C983.586,211.657 973.574,208.673 968.504,201.999C963.434,208.673 953.422,211.657 944.266,208.325C935.11,204.992 929.359,196.271 929.765,187.899C921.591,189.753 912.004,185.603 907.132,177.165C902.26,168.727 903.461,158.35 909.153,152.197C901.7,148.363 897.022,139.022 898.714,129.427C900.406,119.831 907.996,112.653 916.311,111.599C913.067,103.871 915.488,93.709 922.952,87.446C930.416,81.183 940.844,80.563 947.892,85.1Z" style="fill:rgb(233,99,77);"/>
                </g>
                <g transform="matrix(1,0,0,1,1179.05,1419.97)">
                    <text x="171.049px" y="177.165px" style="font-family:'Roboto-Regular', 'Roboto';font-size:41.489px;">Ersatz-</text>
                    <text x="171.85px" y="218.654px" style="font-family:'Roboto-Regular', 'Roboto';font-size:41.489px;">modell</text>
                </g>
            </g>
        </g>
        <g transform="matrix(1,0,0,1,82.6772,0)">
            <g>
                <g transform="matrix(1,0,0,1.05395,-11.811,-42.3021)">
                    <path d="M1488.19,624.8C1488.19,579.823 1449.7,543.307 1402.3,543.307L156.756,543.307C109.352,543.307 70.866,579.823 70.866,624.8L70.866,1359.45C70.866,1404.43 109.352,1440.94 156.756,1440.94L1402.3,1440.94C1449.7,1440.94 1488.19,1404.43 1488.19,1359.45L1488.19,624.8Z" style="fill:rgb(216,223,227);"/>
                </g>
                <g transform="matrix(1,0,0,1,533.284,837.565)">
                    <text x="146.127px" y="177.165px" style="font-family:'Roboto-Regular', 'Roboto';font-size:49.822px;">Schleif<tspan x="296.493px " y="177.165px ">e</tspan></text>
                </g>
            </g>
            <g>
                <g>
                    <g transform="matrix(1,0,0,1,-118.11,0)">
                        <path d="M590.551,147.638C590.551,131.341 577.32,118.11 561.024,118.11L265.748,118.11C249.451,118.11 236.22,131.341 236.22,147.638L236.22,206.693C236.22,222.99 249.451,236.22 265.748,236.22L561.024,236.22C577.32,236.22 590.551,222.99 590.551,206.693L590.551,147.638Z" style="fill:white;"/>
                        <path d="M600.714,147.638C600.714,125.732 582.929,107.948 561.024,107.948L265.748,107.948C243.842,107.948 226.058,125.732 226.058,147.638C226.058,147.638 226.058,206.693 226.058,206.693C226.058,228.599 243.842,246.383 265.748,246.383L561.024,246.383C582.929,246.383 600.714,228.599 600.714,206.693L600.714,147.638ZM590.551,147.638C590.551,131.341 577.32,118.11 561.024,118.11L265.748,118.11C249.451,118.11 236.22,131.341 236.22,147.638L236.22,206.693C236.22,222.99 249.451,236.22 265.748,236.22L561.024,236.22C577.32,236.22 590.551,222.99 590.551,206.693L590.551,147.638Z" style="fill:rgb(105,186,201);"/>
                    </g>
                    <g transform="matrix(1,0,0,1,60.7358,-12.1393)">
                        <text x="169.423px" y="177.165px" style="font-family:'Roboto-Italic', 'Roboto';font-style:italic;font-size:41.489px;">A Priori</text>
                        <text x="119.831px" y="218.654px" style="font-family:'Roboto-Regular', 'Roboto';font-size:41.489px;">V<tspan x="145.336px 167.316px 182.368px " y="218.654px 218.654px 218.654px ">ert</tspan>eilungen</text>
                    </g>
                </g>
                <g>
                    <g transform="matrix(1,0,0,1,-118.11,236.22)">
                        <path d="M590.551,147.638C590.551,131.341 577.32,118.11 561.024,118.11L265.748,118.11C249.451,118.11 236.22,131.341 236.22,147.638L236.22,206.693C236.22,222.99 249.451,236.22 265.748,236.22L561.024,236.22C577.32,236.22 590.551,222.99 590.551,206.693L590.551,147.638Z" style="fill:white;"/>
                        <path d="M600.714,147.638C600.714,125.732 582.929,107.948 561.024,107.948L265.748,107.948C243.842,107.948 226.058,125.732 226.058,147.638C226.058,147.638 226.058,206.693 226.058,206.693C226.058,228.599 243.842,246.383 265.748,246.383C265.748,246.383 561.024,246.383 561.024,246.383C582.929,246.383 600.714,228.599 600.714,206.693L600.714,147.638ZM590.551,147.638C590.551,131.341 577.32,118.11 561.024,118.11L265.748,118.11C249.451,118.11 236.22,131.341 236.22,147.638L236.22,206.693C236.22,222.99 249.451,236.22 265.748,236.22L561.024,236.22C577.32,236.22 590.551,222.99 590.551,206.693L590.551,147.638Z" style="fill:rgb(105,186,201);"/>
                    </g>
                    <g transform="matrix(1,0,0,1,59.6127,253.943)">
                        <text x="75.592px" y="177.165px" style="font-family:'Roboto-Regular', 'Roboto';font-size:41.489px;">P<tspan x="101.543px 124.11px 137.339px " y="177.165px 177.165px 177.165px ">ara</tspan>meterpunkte</text>
                    </g>
                </g>
                <g>
                    <g transform="matrix(1,0,0,1,-118.11,472.491)">
                        <path d="M590.551,147.638C590.551,131.341 577.32,118.11 561.024,118.11L265.748,118.11C249.451,118.11 236.22,131.341 236.22,147.638L236.22,206.693C236.22,222.99 249.451,236.22 265.748,236.22L561.024,236.22C577.32,236.22 590.551,222.99 590.551,206.693L590.551,147.638Z" style="fill:white;"/>
                        <path d="M600.714,147.638C600.714,125.732 582.929,107.948 561.024,107.948L265.748,107.948C243.842,107.948 226.058,125.732 226.058,147.638C226.058,147.638 226.058,206.693 226.058,206.693C226.058,228.599 243.842,246.383 265.748,246.383C265.748,246.383 561.024,246.383 561.024,246.383C582.929,246.383 600.714,228.599 600.714,206.693L600.714,147.638ZM590.551,147.638C590.551,131.341 577.32,118.11 561.024,118.11L265.748,118.11C249.451,118.11 236.22,131.341 236.22,147.638L236.22,206.693C236.22,222.99 249.451,236.22 265.748,236.22L561.024,236.22C577.32,236.22 590.551,222.99 590.551,206.693L590.551,147.638Z" style="fill:rgb(105,186,201);"/>
                    </g>
                    <g transform="matrix(1,0,0,1,61.8929,487.04)">
                        <text x="123.523px" y="177.165px" style="font-family:'Roboto-Regular', 'Roboto';font-size:41.5px;">A<tspan x="150.373px " y="177.165px ">u</tspan>swer<tspan x="262.877px " y="177.165px ">t</tspan>ung</text>
                    </g>
                </g>
                <g>
                    <g transform="matrix(1,0,0,1,354.331,472.491)">
                        <path d="M590.551,147.638C590.551,131.341 577.32,118.11 561.024,118.11L265.748,118.11C249.451,118.11 236.22,131.341 236.22,147.638L236.22,206.693C236.22,222.99 249.451,236.22 265.748,236.22L561.024,236.22C577.32,236.22 590.551,222.99 590.551,206.693L590.551,147.638Z" style="fill:white;"/>
                        <path d="M600.714,147.638C600.714,125.732 582.929,107.948 561.024,107.948L265.748,107.948C243.842,107.948 226.058,125.732 226.058,147.638C226.058,147.638 226.058,206.693 226.058,206.693C226.058,228.599 243.842,246.383 265.748,246.383C265.748,246.383 561.024,246.383 561.024,246.383C582.929,246.383 600.714,228.599 600.714,206.693C600.714,206.693 600.714,147.638 600.714,147.638ZM590.551,147.638C590.551,131.341 577.32,118.11 561.024,118.11L265.748,118.11C249.451,118.11 236.22,131.341 236.22,147.638L236.22,206.693C236.22,222.99 249.451,236.22 265.748,236.22L561.024,236.22C577.32,236.22 590.551,222.99 590.551,206.693L590.551,147.638Z" style="fill:rgb(105,186,201);"/>
                    </g>
                    <g transform="matrix(1,0,0,1,533.051,466.02)">
                        <text x="113.89px" y="177.165px" style="font-family:'Roboto-Regular', 'Roboto';font-size:41.489px;">Ersatzmodell</text>
                        <text x="148.066px" y="218.654px" style="font-family:'Roboto-Regular', 'Roboto';font-size:41.489px;">tr<tspan x="174.847px " y="218.654px ">a</tspan>inier<tspan x="276.077px " y="218.654px ">e</tspan>n</text>
                    </g>
                </g>
                <g>
                    <g transform="matrix(1,0,0,1,826.772,472.491)">
                        <path d="M590.551,147.638C590.551,131.341 577.32,118.11 561.024,118.11L265.748,118.11C249.451,118.11 236.22,131.341 236.22,147.638L236.22,206.693C236.22,222.99 249.451,236.22 265.748,236.22L561.024,236.22C577.32,236.22 590.551,222.99 590.551,206.693L590.551,147.638Z" style="fill:white;"/>
                        <path d="M600.714,147.638C600.714,125.732 582.929,107.948 561.024,107.948L265.748,107.948C243.842,107.948 226.058,125.732 226.058,147.638C226.058,147.638 226.058,206.693 226.058,206.693C226.058,228.599 243.842,246.383 265.748,246.383C265.748,246.383 561.024,246.383 561.024,246.383C582.929,246.383 600.714,228.599 600.714,206.693C600.714,206.693 600.714,147.638 600.714,147.638ZM590.551,147.638C590.551,131.341 577.32,118.11 561.024,118.11L265.748,118.11C249.451,118.11 236.22,131.341 236.22,147.638L236.22,206.693C236.22,222.99 249.451,236.22 265.748,236.22L561.024,236.22C577.32,236.22 590.551,222.99 590.551,206.693L590.551,147.638Z" style="fill:rgb(105,186,201);"/>
                    </g>
                    <g transform="matrix(1,0,0,1,1004.49,461.203)">
                        <text x="88.963px" y="177.165px" style="font-family:'Roboto-Regular', 'Roboto';font-size:41.489px;">v<tspan x="108.755px 132.416px 146.07px " y="177.165px 177.165px 177.165px ">org</tspan>eschlagene</text>
                        <text x="75.592px" y="218.654px" style="font-family:'Roboto-Regular', 'Roboto';font-size:41.489px;">P<tspan x="101.543px 124.11px 137.339px " y="218.654px 218.654px 218.654px ">ara</tspan>meterpunkte</text>
                    </g>
                    <g transform="matrix(1,0,0,1,706.218,665.639)">
                        <text x="84.465px" y="177.165px" style="font-family:'Roboto-Regular', 'Roboto';font-size:41.489px;">Zielwer<tspan x="219.628px " y="177.165px ">t</tspan>funktion</text>
                    </g>
                    <g transform="matrix(1,0,0,1,768.488,266.692)">
                        <text x="84.424px" y="177.165px" style="font-family:'Roboto-Regular', 'Roboto';font-size:41.5px;">Zielwer<tspan x="219.624px " y="177.165px ">t</tspan>funktion</text>
                        <text x="21.891px" y="218.665px" style="font-family:'Roboto-Regular', 'Roboto';font-size:41.5px;">&amp; Plausibilit채tsfunktion</text>
                    </g>
                </g>
                <g>
                    <g transform="matrix(1,0,0,1,826.772,826.772)">
                        <path d="M590.551,147.638C590.551,131.341 577.32,118.11 561.024,118.11L265.748,118.11C249.451,118.11 236.22,131.341 236.22,147.638L236.22,206.693C236.22,222.99 249.451,236.22 265.748,236.22L561.024,236.22C577.32,236.22 590.551,222.99 590.551,206.693L590.551,147.638Z" style="fill:white;"/>
                        <path d="M600.714,147.638C600.714,125.732 582.929,107.948 561.024,107.948C561.024,107.948 265.748,107.948 265.748,107.948C243.842,107.948 226.058,125.732 226.058,147.638C226.058,147.638 226.058,206.693 226.058,206.693C226.058,228.599 243.842,246.383 265.748,246.383C265.748,246.383 561.024,246.383 561.024,246.383C582.929,246.383 600.714,228.599 600.714,206.693C600.714,206.693 600.714,147.638 600.714,147.638ZM590.551,147.638C590.551,131.341 577.32,118.11 561.024,118.11L265.748,118.11C249.451,118.11 236.22,131.341 236.22,147.638L236.22,206.693C236.22,222.99 249.451,236.22 265.748,236.22L561.024,236.22C577.32,236.22 590.551,222.99 590.551,206.693L590.551,147.638Z" style="fill:rgb(105,186,201);"/>
                    </g>
                    <g transform="matrix(1,0,0,1,1004.49,820.301)">
                        <text x="75.592px" y="177.165px" style="font-family:'Roboto-Regular', 'Roboto';font-size:41.489px;">P<tspan x="101.543px 124.11px 137.339px " y="177.165px 177.165px 177.165px ">ara</tspan>meterpunkte</text>
                        <text x="135.323px" y="218.654px" style="font-family:'Roboto-Regular', 'Roboto';font-size:41.489px;">ausw채hlen</text>
                    </g>
                </g>
                <g transform="matrix(1,0,0,1,0,0.144993)">
                    <g transform="matrix(1,0,0,1,826.772,1181.1)">
                        <path d="M590.551,147.638C590.551,131.341 577.32,118.11 561.024,118.11L265.748,118.11C249.451,118.11 236.22,131.341 236.22,147.638L236.22,206.693C236.22,222.99 249.451,236.22 265.748,236.22L561.024,236.22C577.32,236.22 590.551,222.99 590.551,206.693L590.551,147.638Z" style="fill:white;"/>
                        <path d="M600.714,147.638C600.714,125.732 582.929,107.948 561.024,107.948C561.024,107.948 265.748,107.948 265.748,107.948C243.842,107.948 226.058,125.732 226.058,147.638C226.058,147.638 226.058,206.693 226.058,206.693C226.058,228.599 243.842,246.383 265.748,246.383L561.024,246.383C582.929,246.383 600.714,228.599 600.714,206.693C600.714,206.693 600.714,147.638 600.714,147.638ZM590.551,147.638C590.551,131.341 577.32,118.11 561.024,118.11L265.748,118.11C249.451,118.11 236.22,131.341 236.22,147.638L236.22,206.693C236.22,222.99 249.451,236.22 265.748,236.22L561.024,236.22C577.32,236.22 590.551,222.99 590.551,206.693L590.551,147.638Z" style="fill:rgb(105,186,201);"/>
                    </g>
                    <g transform="matrix(1,0,0,1,1005.53,1171.81)">
                        <text x="87.19px" y="177.165px" style="font-family:'Roboto-Regular', 'Roboto';font-size:41.489px;">zuf채llige Punkte</text>
                        <text x="132.173px" y="218.654px" style="font-family:'Roboto-Regular', 'Roboto';font-size:41.489px;">hinzuf체gen</text>
                    </g>
                </g>
                <g transform="matrix(1,0,0,1,0,-0.144993)">
                    <g transform="matrix(1,0,0,1,354.331,1181.39)">
                        <path d="M590.551,147.638C590.551,131.341 577.32,118.11 561.024,118.11L265.748,118.11C249.451,118.11 236.22,131.341 236.22,147.638L236.22,206.693C236.22,222.99 249.451,236.22 265.748,236.22L561.024,236.22C577.32,236.22 590.551,222.99 590.551,206.693L590.551,147.638Z" style="fill:white;"/>
                        <path d="M600.714,147.638C600.714,125.732 582.929,107.948 561.024,107.948C561.024,107.948 265.748,107.948 265.748,107.948C243.842,107.948 226.058,125.732 226.058,147.638C226.058,147.638 226.058,206.693 226.058,206.693C226.058,228.599 243.842,246.383 265.748,246.383L561.024,246.383C582.929,246.383 600.714,228.599 600.714,206.693C600.714,206.693 600.714,147.638 600.714,147.638ZM590.551,147.638C590.551,131.341 577.32,118.11 561.024,118.11L265.748,118.11C249.451,118.11 236.22,131.341 236.22,147.638L236.22,206.693C236.22,222.99 249.451,236.22 265.748,236.22L561.024,236.22C577.32,236.22 590.551,222.99 590.551,206.693L590.551,147.638Z" style="fill:rgb(105,186,201);"/>
                    </g>
                    <g transform="matrix(1,0,0,1,532.541,1192.74)">
                        <text x="168.668px" y="177.165px" style="font-family:'Roboto-Regular', 'Roboto';font-size:41.489px;">Update</text>
                    </g>
                </g>
                <g transform="matrix(1,0,0,1,0,0.144993)">
                    <g transform="matrix(1,0,0,1,-118.11,1181.1)">
                        <path d="M590.551,147.638C590.551,131.341 577.32,118.11 561.024,118.11L265.748,118.11C249.451,118.11 236.22,131.341 236.22,147.638L236.22,206.693C236.22,222.99 249.451,236.22 265.748,236.22L561.024,236.22C577.32,236.22 590.551,222.99 590.551,206.693L590.551,147.638Z" style="fill:white;"/>
                        <path d="M600.714,147.638C600.714,125.732 582.929,107.948 561.024,107.948C561.024,107.948 265.748,107.948 265.748,107.948C243.842,107.948 226.058,125.732 226.058,147.638C226.058,147.638 226.058,206.693 226.058,206.693C226.058,228.599 243.842,246.383 265.748,246.383L561.024,246.383C582.929,246.383 600.714,228.599 600.714,206.693L600.714,147.638ZM590.551,147.638C590.551,131.341 577.32,118.11 561.024,118.11L265.748,118.11C249.451,118.11 236.22,131.341 236.22,147.638L236.22,206.693C236.22,222.99 249.451,236.22 265.748,236.22L561.024,236.22C577.32,236.22 590.551,222.99 590.551,206.693L590.551,147.638Z" style="fill:rgb(105,186,201);"/>
                    </g>
                    <g transform="matrix(1,0,0,1,59.806,1175.71)">
                        <text x="120.261px" y="177.165px" style="font-family:'Roboto-Regular', 'Roboto';font-size:41.489px;">neue Punkte</text>
                        <text x="129.965px" y="218.654px" style="font-family:'Roboto-Regular', 'Roboto';font-size:41.489px;">abschick<tspan x="294.178px " y="218.654px ">e</tspan>n</text>
                    </g>
                </g>
                <g>
                    <g transform="matrix(1,0,0,1,-118.11,826.772)">
                        <path d="M590.551,147.638C590.551,131.341 577.32,118.11 561.024,118.11L265.748,118.11C249.451,118.11 236.22,131.341 236.22,147.638L236.22,206.693C236.22,222.99 249.451,236.22 265.748,236.22L561.024,236.22C577.32,236.22 590.551,222.99 590.551,206.693L590.551,147.638Z" style="fill:white;"/>
                        <path d="M600.714,147.638C600.714,125.732 582.929,107.948 561.024,107.948C561.024,107.948 265.748,107.948 265.748,107.948C243.842,107.948 226.058,125.732 226.058,147.638C226.058,147.638 226.058,206.693 226.058,206.693C226.058,228.599 243.842,246.383 265.748,246.383C265.748,246.383 561.024,246.383 561.024,246.383C582.929,246.383 600.714,228.599 600.714,206.693L600.714,147.638ZM590.551,147.638C590.551,131.341 577.32,118.11 561.024,118.11L265.748,118.11C249.451,118.11 236.22,131.341 236.22,147.638L236.22,206.693C236.22,222.99 249.451,236.22 265.748,236.22L561.024,236.22C577.32,236.22 590.551,222.99 590.551,206.693L590.551,147.638Z" style="fill:rgb(105,186,201);"/>
                    </g>
                    <g transform="matrix(1,0,0,1,60.7986,819.436)">
                        <text x="170.879px" y="177.165px" style="font-family:'Roboto-Regular', 'Roboto';font-size:41.5px;">war<tspan x="239.695px " y="177.165px ">t</tspan>en</text>
                        <text x="108.944px" y="218.665px" style="font-family:'Roboto-Regular', 'Roboto';font-size:41.5px;">und sammeln</text>
                    </g>
                </g>
                <g transform="matrix(1,0,0,1,0,-141.732)">
                    <g transform="matrix(1,0,0,1,944.882,236.22)">
                        <path d="M590.551,147.638C590.551,131.341 577.32,118.11 561.024,118.11L265.748,118.11C249.451,118.11 236.22,131.341 236.22,147.638L236.22,206.693C236.22,222.99 249.451,236.22 265.748,236.22L561.024,236.22C577.32,236.22 590.551,222.99 590.551,206.693L590.551,147.638Z" style="fill:white;"/>
                        <path d="M600.714,147.638C600.714,125.732 582.929,107.948 561.024,107.948L265.748,107.948C243.842,107.948 226.058,125.732 226.058,147.638C226.058,147.638 226.058,206.693 226.058,206.693C226.058,228.599 243.842,246.383 265.748,246.383C265.748,246.383 561.024,246.383 561.024,246.383C582.929,246.383 600.714,228.599 600.714,206.693L600.714,147.638ZM590.551,147.638C590.551,131.341 577.32,118.11 561.024,118.11L265.748,118.11C249.451,118.11 236.22,131.341 236.22,147.638L236.22,206.693C236.22,222.99 249.451,236.22 265.748,236.22L561.024,236.22C577.32,236.22 590.551,222.99 590.551,206.693L590.551,147.638Z" style="fill:rgb(105,186,201);"/>
                    </g>
                    <g transform="matrix(1,0,0,1,1124.38,222.761)">
                        <text x="171.494px" y="177.165px" style="font-family:'Roboto-Regular', 'Roboto';font-size:41.489px;">F<tspan x="194.001px 215.981px 231.033px " y="177.165px 177.165px 177.165px ">ert</tspan>ig?</text>
                        <text x="157.179px" y="229.026px" style="font-family:'Roboto-Regular', 'Roboto';font-size:41.489px;">Schluss</text>
                        <text x="302.086px" y="229.026px" style="font-family:'Cochineal-Roman', 'Cochineal';font-size:41.489px;">!</text>
                    </g>
                </g>
            </g>
            <g>
                <g>
                    <g transform="matrix(1,0,0,1,11.811,5.68434e-14)">
                        <g transform="matrix(1,-0,-0,1,-94.4882,35.4331)">
                            <path d="M393.578,287.648L377.953,318.898L362.328,287.648C370.14,295.46 385.765,295.46 393.578,287.648Z"/>
                            <path d="M377.953,200.787L377.953,293.898" style="fill:none;stroke:black;stroke-width:8.33px;"/>
                        </g>
                    </g>
                    <g transform="matrix(0.8,0,0,1,59.0551,11.811)">
                        <path d="M236.22,283.465C295.276,283.465 295.276,283.465 295.276,330.709" style="fill:none;stroke:black;stroke-width:9.2px;"/>
                    </g>
                    <g transform="matrix(0.290289,0,0,0.290289,-47.7871,216.039)">
                        <rect x="767.717" y="177.165" width="177.165" height="177.165" style="fill:none;"/>
                        <clipPath id="_clip2">
                            <rect x="767.717" y="177.165" width="177.165" height="177.165"/>
                        </clipPath>
                        <g clip-path="url(#_clip2)">
                            <g transform="matrix(1.5,0,0,1.5,-472.441,-177.165)">
                                <rect x="803.15" y="236.22" width="165.354" height="23.622" style="fill:rgb(231,194,121);"/>
                            </g>
                            <g transform="matrix(1.5,0,0,1.5,-472.441,-177.165)">
                                <rect x="803.15" y="283.465" width="165.354" height="23.622" style="fill:rgb(231,194,121);"/>
                            </g>
                            <g transform="matrix(1.5,0,0,1.5,-472.441,-177.165)">
                                <rect x="803.15" y="330.709" width="165.354" height="23.622" style="fill:rgb(231,194,121);"/>
                            </g>
                        </g>
                    </g>
                </g>
                <g transform="matrix(6.12323e-17,-1,1,6.12323e-17,236.22,933.121)">
                    <g transform="matrix(6.12323e-17,1,-1,6.12323e-17,897.688,-318.898)">
                        <path d="M635.728,595.473L673.228,614.223L635.728,632.973C645.103,623.598 645.103,604.848 635.728,595.473Z"/>
                        <path d="M555.118,614.223L643.228,614.223" style="fill:none;stroke:black;stroke-width:8.33px;"/>
                    </g>
                </g>
                <g>
                    <g transform="matrix(-1.83697e-16,1,-1,-1.83697e-16,1299.21,1074.95)">
                        <g transform="matrix(-1.83697e-16,-1,1,-1.83697e-16,-1039.52,1381.89)">
                            <path d="M1065.06,1341.73L1027.56,1322.98L1065.06,1304.23C1055.68,1313.61 1055.68,1332.36 1065.06,1341.73Z"/>
                            <path d="M1145.67,1322.98L1057.56,1322.98" style="fill:none;stroke:black;stroke-width:8.33px;"/>
                        </g>
                    </g>
                    <g transform="matrix(4.89859e-17,0.8,-1,6.12323e-17,1299.21,1122.19)">
                        <path d="M236.22,283.465C295.276,283.465 295.276,283.465 295.276,330.709" style="fill:none;stroke:black;stroke-width:9.2px;"/>
                    </g>
                    <g transform="matrix(0.544667,0,0,0.544667,623.33,1029.54)">
                        <path d="M726.701,378.282C722.56,377.843 718.385,377.843 714.244,378.282L713.26,393.869C709.807,394.446 706.435,395.436 703.217,396.818L693.963,384.237C690.242,386.106 686.729,388.364 683.483,390.972L691.083,404.616C688.489,406.969 686.188,409.625 684.228,412.527L669.641,406.946C667.521,410.531 665.787,414.329 664.466,418.278L678.236,425.648C677.326,429.029 676.826,432.508 676.746,436.009L661.458,439.2C661.613,443.361 662.207,447.495 663.231,451.531L678.799,450.286C679.862,453.622 681.322,456.819 683.147,459.807L672.011,470.758C674.391,474.175 677.126,477.331 680.17,480.172L692.593,470.708C695.291,472.94 698.248,474.841 701.399,476.368L697.951,491.6C701.8,493.188 705.807,494.364 709.904,495.11L715.239,480.431C718.715,480.85 722.23,480.85 725.706,480.431L731.041,495.11C735.138,494.364 739.144,493.188 742.994,491.6L739.546,476.368C742.697,474.841 745.654,472.94 748.352,470.708L760.775,480.172C763.819,477.331 766.554,474.175 768.933,470.758L757.798,459.807C759.623,456.819 761.083,453.622 762.146,450.286L777.714,451.531C778.738,447.495 779.332,443.361 779.487,439.2L764.199,436.009C764.119,432.508 763.619,429.029 762.709,425.648L776.479,418.278C775.158,414.329 773.423,410.531 771.304,406.946L756.717,412.527C754.757,409.625 752.456,406.969 749.862,404.616L757.462,390.972C754.216,388.364 750.703,386.106 746.982,384.237L737.728,396.818C734.51,395.436 731.138,394.446 727.684,393.869L726.701,378.282ZM720.472,412.315C734.101,412.315 745.165,423.38 745.165,437.008C745.165,450.636 734.101,461.7 720.472,461.7C706.844,461.7 695.78,450.636 695.78,437.008C695.78,423.38 706.844,412.315 720.472,412.315Z" style="fill:rgb(31,145,194);"/>
                    </g>
                </g>
                <g>
                    <g transform="matrix(-0.6,-7.34788e-17,7.34788e-17,-0.6,465.354,1275.59)">
                        <g transform="matrix(-1.66667,2.04108e-16,-2.04108e-16,-1.66667,913.386,2066.93)">
                            <path d="M359.203,1065.06L377.953,1027.56L396.703,1065.06C387.328,1055.68 368.578,1055.68 359.203,1065.06Z"/>
                            <path d="M377.953,1098.42L377.953,1057.56" style="fill:none;stroke:black;stroke-width:8.33px;"/>
                        </g>
                    </g>
                    <g transform="matrix(-0.6,-7.34788e-17,7.34788e-17,-0.6,465.354,1440.94)">
                        <g transform="matrix(-1.66667,2.04108e-16,-2.04108e-16,-1.66667,913.386,2342.52)">
                            <path d="M359.203,1230.41L377.953,1192.91L396.703,1230.41C387.328,1221.04 368.578,1221.04 359.203,1230.41Z"/>
                            <path d="M377.953,1263.78L377.953,1222.91" style="fill:none;stroke:black;stroke-width:8.33px;"/>
                        </g>
                    </g>
                    <g transform="matrix(-0.544667,-6.67025e-17,6.67025e-17,-0.544667,687.693,1419.18)">
                        <path d="M726.701,378.282C722.56,377.843 718.385,377.843 714.244,378.282L713.26,393.869C709.807,394.446 706.435,395.436 703.217,396.818L693.963,384.237C690.242,386.106 686.729,388.364 683.483,390.972L691.083,404.616C688.489,406.969 686.188,409.625 684.228,412.527L669.641,406.946C667.521,410.531 665.787,414.329 664.466,418.278L678.236,425.648C677.326,429.029 676.826,432.508 676.746,436.009L661.458,439.2C661.613,443.361 662.207,447.495 663.231,451.531L678.799,450.286C679.862,453.622 681.322,456.819 683.147,459.807L672.011,470.758C674.391,474.175 677.126,477.331 680.17,480.172L692.593,470.708C695.291,472.94 698.248,474.841 701.399,476.368L697.951,491.6C701.8,493.188 705.807,494.364 709.904,495.11L715.239,480.431C718.715,480.85 722.23,480.85 725.706,480.431L731.041,495.11C735.138,494.364 739.144,493.188 742.994,491.6L739.546,476.368C742.697,474.841 745.654,472.94 748.352,470.708L760.775,480.172C763.819,477.331 766.554,474.175 768.933,470.758L757.798,459.807C759.623,456.819 761.083,453.622 762.146,450.286L777.714,451.531C778.738,447.495 779.332,443.361 779.487,439.2L764.199,436.009C764.119,432.508 763.619,429.029 762.709,425.648L776.479,418.278C775.158,414.329 773.423,410.531 771.304,406.946L756.717,412.527C754.757,409.625 752.456,406.969 749.862,404.616L757.462,390.972C754.216,388.364 750.703,386.106 746.982,384.237L737.728,396.818C734.51,395.436 731.138,394.446 727.684,393.869L726.701,378.282ZM720.472,412.315C734.101,412.315 745.165,423.38 745.165,437.008C745.165,450.636 734.101,461.7 720.472,461.7C706.844,461.7 695.78,450.636 695.78,437.008C695.78,423.38 706.844,412.315 720.472,412.315Z" style="fill:rgb(31,145,194);"/>
                    </g>
                </g>
                <g transform="matrix(-1.83697e-16,1,-1,-1.83697e-16,826.772,1074.95)">
                    <g transform="matrix(-1.83697e-16,-1,1,-1.83697e-16,-1039.52,909.449)">
                        <path d="M592.618,1341.73L555.118,1322.98L592.618,1304.23C583.243,1313.61 583.243,1332.36 592.618,1341.73Z"/>
                        <path d="M673.228,1322.98L585.118,1322.98" style="fill:none;stroke:black;stroke-width:8.33px;"/>
                    </g>
                </g>
                <g>
                    <g transform="matrix(1,0,0,1.99958,956.693,236.37)">
                        <g transform="matrix(1,-0,-0,0.500105,-1039.37,-100.49)">
                            <path d="M1341.59,871.949L1322.84,909.449L1304.09,871.949C1313.46,881.324 1332.21,881.324 1341.59,871.949Z"/>
                            <path d="M1322.84,673.278L1322.84,879.449" style="fill:none;stroke:black;stroke-width:8.33px;"/>
                        </g>
                    </g>
                    <g transform="matrix(0.8,0,0,1,1003.94,543.332)">
                        <path d="M236.22,283.465C295.276,283.465 295.276,283.465 295.276,330.709" style="fill:none;stroke:black;stroke-width:9.2px;"/>
                    </g>
                    <g transform="matrix(0.445536,0,0,0.445536,709.981,764.271)">
                        <path d="M947.892,85.1C950.373,77.094 958.76,70.866 968.504,70.866C978.247,70.866 986.634,77.094 989.116,85.1C996.164,80.563 1006.59,81.183 1014.06,87.446C1021.52,93.709 1023.94,103.871 1020.7,111.599C1029.01,112.653 1036.6,119.831 1038.29,129.427C1039.99,139.022 1035.31,148.363 1027.86,152.197C1033.55,158.35 1034.75,168.727 1029.88,177.165C1025,185.603 1015.42,189.753 1007.24,187.899C1007.65,196.271 1001.9,204.992 992.742,208.325C983.586,211.657 973.574,208.673 968.504,201.999C963.434,208.673 953.422,211.657 944.266,208.325C935.11,204.992 929.359,196.271 929.765,187.899C921.591,189.753 912.004,185.603 907.132,177.165C902.26,168.727 903.461,158.35 909.153,152.197C901.7,148.363 897.022,139.022 898.714,129.427C900.406,119.831 907.996,112.653 916.311,111.599C913.067,103.871 915.488,93.709 922.952,87.446C930.416,81.183 940.844,80.563 947.892,85.1Z" style="fill:rgb(233,99,77);"/>
                    </g>
                </g>
                <g>
                    <g transform="matrix(1.99958,-2.20453e-15,2.38812e-15,1.99958,673.348,590.991)">
                        <g transform="matrix(0.500105,5.51365e-16,-5.97283e-16,0.500105,-378.092,-277.837)">
                            <path d="M1341.59,1226.57L1322.84,1264.07L1304.09,1226.57C1313.46,1235.94 1332.21,1235.94 1341.59,1226.57Z"/>
                            <path d="M1322.84,1027.9L1322.84,1234.07" style="fill:none;stroke:black;stroke-width:8.33px;"/>
                        </g>
                    </g>
                    <g transform="matrix(0.8,0,0,1,1003.94,897.953)">
                        <path d="M236.22,283.465C295.276,283.465 295.276,283.465 295.276,330.709" style="fill:none;stroke:black;stroke-width:9.2px;"/>
                    </g>
                    <g transform="matrix(0.290289,0,0,0.290289,898.443,1104.27)">
                        <rect x="767.717" y="177.165" width="177.165" height="177.165" style="fill:none;"/>
                        <clipPath id="_clip3">
                            <rect x="767.717" y="177.165" width="177.165" height="177.165"/>
                        </clipPath>
                        <g clip-path="url(#_clip3)">
                            <g transform="matrix(1.5,0,0,1.5,-472.441,-177.165)">
                                <rect x="803.15" y="236.22" width="165.354" height="23.622" style="fill:rgb(231,194,121);"/>
                            </g>
                            <g transform="matrix(1.5,0,0,1.5,-472.441,-177.165)">
                                <rect x="803.15" y="283.465" width="165.354" height="23.622" style="fill:rgb(231,194,121);"/>
                            </g>
                            <g transform="matrix(1.5,0,0,1.5,-472.441,-177.165)">
                                <rect x="803.15" y="330.709" width="165.354" height="23.622" style="fill:rgb(231,194,121);"/>
                            </g>
                        </g>
                    </g>
                </g>
                <g transform="matrix(-1.99958,6.66134e-16,-8.88178e-16,-1.99958,862.085,1417.22)">
                    <g transform="matrix(-0.500105,-1.66604e-16,2.22138e-16,-0.500105,472.481,691.041)">
                        <path d="M359.203,710.778L377.953,673.278L396.703,710.778C387.328,701.403 368.578,701.403 359.203,710.778Z"/>
                        <path d="M377.953,909.449L377.953,703.278" style="fill:none;stroke:black;stroke-width:8.33px;"/>
                    </g>
                </g>
                <g>
                    <g transform="matrix(-1,3.46945e-16,-4.51028e-16,-1.25,472.441,885.877)">
                        <g transform="matrix(-1,-2.77556e-16,3.60822e-16,-0.8,555.118,680.355)">
                            <path d="M287.476,511.389L318.898,496.113L287.823,480.141C295.549,488.04 295.375,503.664 287.476,511.389Z"/>
                            <path d="M293.899,495.835C259.843,494.453 259.843,486.213 259.843,437.058" style="fill:none;stroke:black;stroke-width:8.33px;"/>
                        </g>
                    </g>
                    <g transform="matrix(1,-2.53202e-17,4.89974e-17,1.25,118.11,176.016)">
                        <g transform="matrix(1,2.02561e-17,-3.9198e-17,0.8,-200.787,-112.467)">
                            <path d="M511.339,522.547L496.063,553.969L480.091,522.895C487.99,530.62 503.614,530.446 511.339,522.547Z"/>
                            <path d="M437.008,494.914C486.163,494.914 494.403,494.914 495.785,528.971" style="fill:none;stroke:black;stroke-width:8.33px;"/>
                        </g>
                    </g>
                    <g transform="matrix(0.544667,0,0,0.544667,-97.1423,296.11)">
                        <path d="M726.701,378.282C722.56,377.843 718.385,377.843 714.244,378.282L713.26,393.869C709.807,394.446 706.435,395.436 703.217,396.818L693.963,384.237C690.242,386.106 686.729,388.364 683.483,390.972L691.083,404.616C688.489,406.969 686.188,409.625 684.228,412.527L669.641,406.946C667.521,410.531 665.787,414.329 664.466,418.278L678.236,425.648C677.326,429.029 676.826,432.508 676.746,436.009L661.458,439.2C661.613,443.361 662.207,447.495 663.231,451.531L678.799,450.286C679.862,453.622 681.322,456.819 683.147,459.807L672.011,470.758C674.391,474.175 677.126,477.331 680.17,480.172L692.593,470.708C695.291,472.94 698.248,474.841 701.399,476.368L697.951,491.6C701.8,493.188 705.807,494.364 709.904,495.11L715.239,480.431C718.715,480.85 722.23,480.85 725.706,480.431L731.041,495.11C735.138,494.364 739.144,493.188 742.994,491.6L739.546,476.368C742.697,474.841 745.654,472.94 748.352,470.708L760.775,480.172C763.819,477.331 766.554,474.175 768.933,470.758L757.798,459.807C759.623,456.819 761.083,453.622 762.146,450.286L777.714,451.531C778.738,447.495 779.332,443.361 779.487,439.2L764.199,436.009C764.119,432.508 763.619,429.029 762.709,425.648L776.479,418.278C775.158,414.329 773.423,410.531 771.304,406.946L756.717,412.527C754.757,409.625 752.456,406.969 749.862,404.616L757.462,390.972C754.216,388.364 750.703,386.106 746.982,384.237L737.728,396.818C734.51,395.436 731.138,394.446 727.684,393.869L726.701,378.282ZM720.472,412.315C734.101,412.315 745.165,423.38 745.165,437.008C745.165,450.636 734.101,461.7 720.472,461.7C706.844,461.7 695.78,450.636 695.78,437.008C695.78,423.38 706.844,412.315 720.472,412.315Z" style="fill:rgb(31,145,194);"/>
                    </g>
                </g>
                <g>
                    <g transform="matrix(1,-2.53202e-17,4.89974e-17,1.25,814.961,177.215)">
                        <g transform="matrix(1,2.02561e-17,-3.9198e-17,0.8,-897.638,-113.426)">
                            <path d="M1208.19,523.746L1192.91,555.168L1176.94,524.094C1184.84,531.819 1200.46,531.645 1208.19,523.746Z"/>
                            <path d="M1133.86,496.113C1183.01,496.113 1191.25,496.113 1192.63,530.169" style="fill:none;stroke:black;stroke-width:8.33px;"/>
                        </g>
                    </g>
                    <g transform="matrix(3.59122e-17,-1,1.25,2.7543e-17,543.307,826.772)">
                        <g transform="matrix(2.20344e-17,0.8,-1,2.87297e-17,791.339,-500.787)">
                            <path d="M1007.95,480.787L1039.37,496.063L1008.3,512.035C1016.02,504.136 1015.85,488.512 1007.95,480.787Z"/>
                            <path d="M980.315,555.118C980.315,505.963 980.315,497.722 1014.37,496.341" style="fill:none;stroke:black;stroke-width:8.33px;"/>
                        </g>
                    </g>
                    <g transform="matrix(0.445536,0,0,0.445536,568.248,470.395)">
                        <path d="M947.892,85.1C950.373,77.094 958.76,70.866 968.504,70.866C978.247,70.866 986.634,77.094 989.116,85.1C996.164,80.563 1006.59,81.183 1014.06,87.446C1021.52,93.709 1023.94,103.871 1020.7,111.599C1029.01,112.653 1036.6,119.831 1038.29,129.427C1039.99,139.022 1035.31,148.363 1027.86,152.197C1033.55,158.35 1034.75,168.727 1029.88,177.165C1025,185.603 1015.42,189.753 1007.24,187.899C1007.65,196.271 1001.9,204.992 992.742,208.325C983.586,211.657 973.574,208.673 968.504,201.999C963.434,208.673 953.422,211.657 944.266,208.325C935.11,204.992 929.359,196.271 929.765,187.899C921.591,189.753 912.004,185.603 907.132,177.165C902.26,168.727 903.461,158.35 909.153,152.197C901.7,148.363 897.022,139.022 898.714,129.427C900.406,119.831 907.996,112.653 916.311,111.599C913.067,103.871 915.488,93.709 922.952,87.446C930.416,81.183 940.844,80.563 947.892,85.1Z" style="fill:rgb(233,99,77);"/>
                    </g>
                </g>
                <g transform="matrix(3.59122e-17,-1,1.25,2.7543e-17,165.354,884.678)">
                    <g transform="matrix(2.20344e-17,0.8,-1,2.87297e-17,849.245,-198.425)">
                        <path d="M1232.53,220.595L1263.78,236.22L1232.53,251.845C1240.34,244.033 1240.34,228.408 1232.53,220.595Z"/>
                        <path d="M578.74,614.223C602.362,614.223 602.362,602.362 602.362,578.74L602.362,295.325C602.362,248.031 625.984,236.22 673.228,236.22L1238.78,236.22" style="fill:none;stroke:black;stroke-width:8.33px;stroke-dasharray:8.33,11.98,0,0;"/>
                    </g>
                </g>
            </g>
        </g>
    </g>
</svg>
