<?xml version="1.0" encoding="UTF-8" standalone="no"?>
<!DOCTYPE svg PUBLIC "-//W3C//DTD SVG 1.1//EN" "http://www.w3.org/Graphics/SVG/1.1/DTD/svg11.dtd">
<svg width="100%" height="100%" viewBox="0 0 4090 3274" version="1.1" xmlns="http://www.w3.org/2000/svg" xmlns:xlink="http://www.w3.org/1999/xlink" xml:space="preserve" xmlns:serif="http://www.serif.com/" style="fill-rule:evenodd;clip-rule:evenodd;stroke-linecap:round;stroke-linejoin:round;stroke-miterlimit:1.5;">
    <g>
        <g>
            <path d="M1830.68,1655.44L1855.75,1754.58L1761.4,1715.15C1793.64,1717.55 1828.29,1687.69 1830.68,1655.44Z" style="fill:rgb(202,202,202);"/>
            <path d="M1724.94,1386.55C1713.86,1491.05 1744.76,1610 1807.98,1699.15" style="fill:none;stroke:rgb(202,202,202);stroke-width:20.33px;"/>
            <path d="M2729.67,1577.76L2805.22,1646.67L2704.76,1665.76C2732.99,1649.99 2745.44,1605.99 2729.67,1577.76Z" style="fill:rgb(202,202,202);"/>
            <path d="M2345.41,1640.29C2439.11,1588.96 2610.25,1598.15 2734.81,1626.74" style="fill:none;stroke:rgb(202,202,202);stroke-width:20.33px;"/>
            <path d="M2380.85,1958.25L2401.27,2058.45L2308.86,2014.67C2340.96,2018.56 2376.95,1990.35 2380.85,1958.25Z" style="fill:rgb(202,202,202);"/>
            <path d="M2283.62,1720.66C2253.67,1796.62 2301.43,1918.13 2356.14,2000.86" style="fill:none;stroke:rgb(202,202,202);stroke-width:20.33px;"/>
            <path d="M1626.58,948.975L1691.99,1027.58L1589.86,1032.74C1619.98,1020.98 1638.34,979.097 1626.58,948.975Z" style="fill:rgb(202,202,202);"/>
            <path d="M1400.79,1006.05C1469.02,984.839 1552.32,977.766 1624.98,998.203" style="fill:none;stroke:rgb(202,202,202);stroke-width:20.33px;"/>
            <path d="M1261.59,1149.68L1203.87,1234.1L1170.97,1137.28C1190.52,1163.04 1235.83,1169.24 1261.59,1149.68Z" style="fill:rgb(202,202,202);"/>
            <path d="M1304.3,1036.6C1260.07,1043.88 1228.78,1105.03 1213.8,1161.61" style="fill:none;stroke:rgb(202,202,202);stroke-width:20.33px;"/>
            <path d="M2196.59,1147.47L2274.37,1213.85L2174.6,1236.25C2202.29,1219.55 2213.29,1175.16 2196.59,1147.47Z" style="fill:rgb(202,202,202);"/>
            <path d="M1800.28,1316.48C1896.28,1257.11 2070.36,1183.42 2203.35,1196.26" style="fill:none;stroke:rgb(202,202,202);stroke-width:20.33px;"/>
        </g>
        <g>
            <path d="M1239,1088.84L1326.28,1142.12L1231.29,1179.98C1256,1159.12 1259.86,1113.55 1239,1088.84Z"/>
            <path d="M1072.62,1077.64C1118.33,1126.44 1187.35,1131.99 1253.37,1135.95" style="fill:none;stroke:black;stroke-width:20.33px;"/>
            <path d="M1804.35,1448L1903.12,1474.47L1822.68,1537.6C1840.5,1510.62 1831.34,1465.82 1804.35,1448Z"/>
            <path d="M1398.51,1481.19C1473.93,1533.96 1695.86,1512.93 1831.44,1489.13" style="fill:none;stroke:black;stroke-width:20.33px;"/>
            <path d="M2375.85,1860.99L2476.14,1880.92L2400.02,1949.2C2416.03,1921.1 2403.94,1877 2375.85,1860.99Z"/>
            <path d="M2142.29,1901.68C2229.96,1927.11 2318.76,1920.58 2405.58,1900.26" style="fill:none;stroke:black;stroke-width:20.33px;"/>
            <path d="M2139.41,1277.63L2082.92,1362.88L2048.62,1266.55C2068.54,1292.02 2113.94,1297.56 2139.41,1277.63Z"/>
            <path d="M2049.18,981.769C2084.82,1087.36 2099.61,1185.6 2091.8,1290.25" style="fill:none;stroke:black;stroke-width:20.33px;"/>
            <path d="M2636.83,1723.58L2555.83,1785.99L2554.5,1683.74C2565.12,1714.28 2606.29,1734.2 2636.83,1723.58Z"/>
            <path d="M2591.41,1474.47C2621.07,1566.8 2608.49,1658.14 2587.7,1720.13" style="fill:none;stroke:black;stroke-width:20.33px;"/>
            <path d="M1581.4,1028.16L1511.37,1102.68L1493.77,1001.95C1509.13,1030.41 1552.94,1043.51 1581.4,1028.16Z"/>
            <path d="M1527.46,922.824C1538.12,958.203 1538.72,995.985 1532.34,1032.58" style="fill:none;stroke:black;stroke-width:20.33px;"/>
        </g>
    </g>
</svg>
