<?xml version="1.0" encoding="UTF-8" standalone="no"?>
<!DOCTYPE svg PUBLIC "-//W3C//DTD SVG 1.1//EN" "http://www.w3.org/Graphics/SVG/1.1/DTD/svg11.dtd">
<svg width="100%" height="100%" viewBox="0 0 4090 3274" version="1.1" xmlns="http://www.w3.org/2000/svg" xmlns:xlink="http://www.w3.org/1999/xlink" xml:space="preserve" xmlns:serif="http://www.serif.com/" style="fill-rule:evenodd;clip-rule:evenodd;stroke-linecap:round;stroke-linejoin:round;stroke-miterlimit:1.5;">
    <g>
        <path d="M1745.29,1190.4L1767.49,1290.22L1674.31,1248.09C1706.48,1251.41 1741.96,1222.56 1745.29,1190.4Z"/>
        <path d="M1488.73,1155.29C1570.44,1147.22 1659.89,1176.89 1721.34,1233.44" style="fill:none;stroke:black;stroke-width:20.33px;"/>
        <path d="M2085.28,1533.32L2169.78,1590.9L2073.02,1623.96C2098.74,1604.36 2104.87,1559.04 2085.28,1533.32Z"/>
        <path d="M1963.51,1442.72C1972.16,1461.14 1977.03,1482.33 1987.28,1499.77C2012.24,1542.25 2052.4,1568.25 2097.28,1581.09" style="fill:none;stroke:black;stroke-width:20.33px;"/>
        <path d="M2603.19,1713.7L2634.71,1810.98L2537.97,1777.83C2570.31,1778.1 2602.91,1746.04 2603.19,1713.7Z"/>
        <path d="M2334.39,1650.6C2387.38,1639.75 2490.48,1685.27 2532.93,1715.63C2550.66,1728.31 2567.34,1743.19 2583.4,1758.81" style="fill:none;stroke:black;stroke-width:20.33px;"/>
        <path d="M1922.73,1209.73L1944.57,1309.63L1851.54,1267.16C1883.7,1270.6 1919.29,1241.88 1922.73,1209.73Z"/>
        <path d="M1451.75,1047.98C1482.28,1040.89 1508.84,1050.52 1538.84,1055.79C1669.73,1078.77 1805.06,1151.46 1898.62,1252.68" style="fill:none;stroke:black;stroke-width:20.33px;"/>
        <path d="M2159.23,1653.7L2239.53,1717.01L2140.7,1743.27C2167.73,1725.51 2176.99,1680.73 2159.23,1653.7Z"/>
        <path d="M1805.16,1416.49C1825.46,1440.14 1839.88,1469.47 1859.61,1494.08C1938.63,1592.63 2038.47,1673.17 2162.87,1701C2164.55,1701.38 2166.22,1701.78 2167.88,1702.19" style="fill:none;stroke:black;stroke-width:20.33px;"/>
        <path d="M2725.87,1699.32L2757.66,1796.51L2660.83,1763.63C2693.17,1763.81 2725.69,1731.65 2725.87,1699.32Z"/>
        <path d="M2273.64,1549.92C2409.34,1541.32 2591.58,1640.83 2706.21,1744.48" style="fill:none;stroke:black;stroke-width:20.33px;"/>
        <path d="M2989.79,1753.41L2987.36,1855.64L2907.03,1792.36C2937.46,1803.31 2978.84,1783.84 2989.79,1753.41Z"/>
        <path d="M1364.79,961.813C1713.58,949.839 2127.9,1115.13 2398.33,1264.1C2609.52,1380.45 2862.61,1630.4 2956.2,1789.44" style="fill:none;stroke:black;stroke-width:20.33px;"/>
        <path d="M2805.05,2015.18L2901.08,2050.32L2815.35,2106.06C2835.49,2080.77 2830.34,2035.33 2805.05,2015.18Z"/>
        <path d="M1176.96,985.278C1210.7,1134.69 1350.64,1387.81 1516.69,1516.81C1740.11,1690.37 2047.15,1930.96 2517.42,2026.61C2616.94,2046.85 2724.65,2064.32 2828.37,2058.56" style="fill:none;stroke:black;stroke-width:20.33px;"/>
    </g>
</svg>
