<?xml version="1.0" encoding="UTF-8" standalone="no"?>
<!DOCTYPE svg PUBLIC "-//W3C//DTD SVG 1.1//EN" "http://www.w3.org/Graphics/SVG/1.1/DTD/svg11.dtd">
<svg width="100%" height="100%" viewBox="0 0 4090 3274" version="1.1" xmlns="http://www.w3.org/2000/svg" xmlns:xlink="http://www.w3.org/1999/xlink" xml:space="preserve" xmlns:serif="http://www.serif.com/" style="fill-rule:evenodd;clip-rule:evenodd;stroke-linecap:round;stroke-linejoin:round;stroke-miterlimit:1.5;">
    <g>
        <path d="M1904.11,1053.51L1970.58,1131.22L1868.53,1137.77C1898.49,1125.6 1916.28,1083.47 1904.11,1053.51Z"/>
        <path d="M1406.62,1066.17C1519.23,1021.94 1758.77,1052.83 1903.18,1102.76" style="fill:none;stroke:black;stroke-width:20.33px;"/>
        <path d="M1343.84,1388.5L1328.76,1489.64L1256.89,1416.89C1285.73,1431.53 1329.2,1417.34 1343.84,1388.5Z"/>
        <path d="M1364.6,1079.86C1268.77,1146.53 1275.56,1303.62 1306.04,1420.09" style="fill:none;stroke:black;stroke-width:20.33px;"/>
        <path d="M2425.21,1310.13L2492.91,1386.78L2390.97,1394.94C2420.74,1382.3 2437.86,1339.89 2425.21,1310.13Z"/>
        <path d="M1974.5,1379.89C2107.33,1331.14 2283.27,1315.08 2425.06,1359.38" style="fill:none;stroke:black;stroke-width:20.33px;"/>
        <path d="M1937.12,1665.39L1939.21,1767.63L1856.17,1707.95C1887.05,1717.55 1927.53,1696.27 1937.12,1665.39Z"/>
        <path d="M1915.16,1421.29C1870.84,1464.03 1875.62,1611.13 1905.16,1702.86" style="fill:none;stroke:black;stroke-width:20.33px;"/>
        <path d="M2721.39,1665.1L2813.78,1708.93L2723.27,1756.54C2745.66,1733.21 2744.72,1687.49 2721.39,1665.1Z"/>
        <path d="M2490.11,1775.02C2564.34,1730.07 2653.33,1714.8 2740.62,1710.44" style="fill:none;stroke:black;stroke-width:20.33px;"/>
        <path d="M2435.05,1901.04L2432.19,2003.26L2352.13,1939.64C2382.51,1950.72 2423.97,1931.42 2435.05,1901.04Z"/>
        <path d="M2441.36,1844.71C2418.57,1875.39 2401.55,1906.35 2401.31,1936.93" style="fill:none;stroke:black;stroke-width:20.33px;"/>
    </g>
</svg>
