<?xml version="1.0" encoding="UTF-8" standalone="no"?>
<!DOCTYPE svg PUBLIC "-//W3C//DTD SVG 1.1//EN" "http://www.w3.org/Graphics/SVG/1.1/DTD/svg11.dtd">
<svg width="100%" height="100%" viewBox="0 0 4090 3274" version="1.1" xmlns="http://www.w3.org/2000/svg" xmlns:xlink="http://www.w3.org/1999/xlink" xml:space="preserve" xmlns:serif="http://www.serif.com/" style="fill-rule:evenodd;clip-rule:evenodd;stroke-linecap:round;stroke-linejoin:round;stroke-miterlimit:1.5;">
    <g>
        <path d="M1239,1088.84L1326.28,1142.12L1231.29,1179.98C1256,1159.12 1259.86,1113.55 1239,1088.84Z"/>
        <path d="M1072.62,1077.64C1118.33,1126.44 1187.35,1131.99 1253.37,1135.95" style="fill:none;stroke:black;stroke-width:20.33px;"/>
        <path d="M1804.35,1448L1903.12,1474.47L1822.68,1537.6C1840.5,1510.62 1831.34,1465.82 1804.35,1448Z"/>
        <path d="M1398.51,1481.19C1473.93,1533.96 1695.86,1512.93 1831.44,1489.13" style="fill:none;stroke:black;stroke-width:20.33px;"/>
        <path d="M2375.85,1860.99L2476.14,1880.92L2400.02,1949.2C2416.03,1921.1 2403.94,1877 2375.85,1860.99Z"/>
        <path d="M2142.29,1901.68C2229.96,1927.11 2318.76,1920.58 2405.58,1900.26" style="fill:none;stroke:black;stroke-width:20.33px;"/>
        <path d="M2139.41,1277.63L2082.92,1362.88L2048.62,1266.55C2068.54,1292.02 2113.94,1297.56 2139.41,1277.63Z"/>
        <path d="M2049.18,981.769C2084.82,1087.36 2099.61,1185.6 2091.8,1290.25" style="fill:none;stroke:black;stroke-width:20.33px;"/>
        <path d="M2636.83,1723.58L2555.83,1785.99L2554.5,1683.74C2565.12,1714.28 2606.29,1734.2 2636.83,1723.58Z"/>
        <path d="M2591.41,1474.47C2621.07,1566.8 2608.49,1658.14 2587.7,1720.13" style="fill:none;stroke:black;stroke-width:20.33px;"/>
        <path d="M1581.4,1028.16L1511.37,1102.68L1493.77,1001.95C1509.13,1030.41 1552.94,1043.51 1581.4,1028.16Z"/>
        <path d="M1527.46,922.824C1538.12,958.203 1538.72,995.985 1532.34,1032.58" style="fill:none;stroke:black;stroke-width:20.33px;"/>
    </g>
</svg>
