<?xml version="1.0" encoding="UTF-8" standalone="no"?>
<!DOCTYPE svg PUBLIC "-//W3C//DTD SVG 1.1//EN" "http://www.w3.org/Graphics/SVG/1.1/DTD/svg11.dtd">
<svg width="100%" height="100%" viewBox="0 0 4090 3274" version="1.1" xmlns="http://www.w3.org/2000/svg" xmlns:xlink="http://www.w3.org/1999/xlink" xml:space="preserve" xmlns:serif="http://www.serif.com/" style="fill-rule:evenodd;clip-rule:evenodd;stroke-linecap:round;stroke-linejoin:round;stroke-miterlimit:1.5;">
    <g>
        <g transform="matrix(1,0,0,1,-4.00086,-0.531847)">
            <g transform="matrix(1,-0,-0,1,4.00086,0.531847)">
                <path d="M1490.88,1028.22L1556.65,949.037L1453.83,943.931C1484.17,955.744 1502.69,997.891 1490.88,1028.22Z"/>
                <path d="M1467.86,1052.94L1369.38,1082.92L1404.48,986.146C1403.63,1018.69 1435.32,1052.08 1467.86,1052.94Z"/>
                <path d="M1489.21,978.67C1465.35,994.479 1442.26,1014.2 1422.81,1032.22" style="fill:none;stroke:black;stroke-width:20.33px;"/>
            </g>
        </g>
        <path d="M1379.37,1340.86L1382.16,1443.76L1462.81,1379.79C1432.22,1390.92 1390.5,1371.45 1379.37,1340.86Z"/>
        <path d="M1454.32,1267.38L1556.65,1278.61L1486.27,1353.73C1499.87,1324.16 1483.9,1280.98 1454.32,1267.38Z"/>
        <path d="M1413.3,1377.01C1433.29,1350.37 1460.49,1323.25 1487.57,1304.16" style="fill:none;stroke:black;stroke-width:20.33px;"/>
        <path d="M1922.88,1191.06L1965.33,1097.28L1864.84,1119.59C1897.21,1122.94 1926.24,1158.68 1922.88,1191.06Z"/>
        <path d="M1878.87,1287.88L1817.21,1370.3L1788.27,1271.52C1806.83,1298.26 1852.13,1306.44 1878.87,1287.88Z"/>
        <path d="M1908.15,1143.71C1874.46,1186.17 1846.13,1248.11 1830.3,1297.82" style="fill:none;stroke:black;stroke-width:20.33px;"/>
        <path d="M2027.66,1531.86L2104.01,1462.82L2002.97,1443.16C2031.31,1459.16 2043.66,1503.51 2027.66,1531.86Z"/>
        <path d="M1835.28,1686.16L1754.87,1750.44L1751.69,1647.55C1762.93,1678.1 1804.73,1697.4 1835.28,1686.16Z"/>
        <path d="M2033.05,1482.57C1950.81,1523.31 1840.57,1617.6 1785.76,1683.57" style="fill:none;stroke:black;stroke-width:20.33px;"/>
        <path d="M2381.27,1647.84L2373.95,1750.52L2460.49,1694.77C2428.95,1702.84 2389.34,1679.38 2381.27,1647.84Z"/>
        <path d="M2559.86,1467.28L2662.7,1462.82L2604.57,1547.77C2613.51,1516.47 2591.16,1476.23 2559.86,1467.28Z"/>
        <path d="M2411.49,1687.15C2457.43,1628.14 2536.7,1545.49 2598.31,1498.59" style="fill:none;stroke:black;stroke-width:20.33px;"/>
        <path d="M2658.28,1979.62L2725.1,1901.31L2622.36,1894.84C2652.54,1907.05 2670.49,1949.44 2658.28,1979.62Z"/>
        <path d="M2626.51,2017.08L2533.4,2060.99L2554.13,1960.16C2558,1992.48 2594.18,2020.94 2626.51,2017.08Z"/>
        <path d="M2657.28,1930.04C2630.22,1950.42 2601.75,1978.27 2578.94,2003.09" style="fill:none;stroke:black;stroke-width:20.33px;"/>
    </g>
</svg>
