<?xml version="1.0" encoding="UTF-8" standalone="no"?>
<!DOCTYPE svg PUBLIC "-//W3C//DTD SVG 1.1//EN" "http://www.w3.org/Graphics/SVG/1.1/DTD/svg11.dtd">
<svg width="100%" height="100%" viewBox="0 0 4090 3274" version="1.1" xmlns="http://www.w3.org/2000/svg" xmlns:xlink="http://www.w3.org/1999/xlink" xml:space="preserve" xmlns:serif="http://www.serif.com/" style="fill-rule:evenodd;clip-rule:evenodd;stroke-linecap:round;stroke-linejoin:round;stroke-miterlimit:1.5;">
    <g>
        <g>
            <g transform="matrix(1,0,0,1,-63.1788,-8.30615)">
                <g transform="matrix(1,-0,-0,1,63.1788,8.30615)">
                    <path d="M2297.76,2747.96L2204.31,2791.75L2225.35,2690.72C2229.14,2723.13 2265.34,2751.75 2297.76,2747.96Z"/>
                    <path d="M2369.89,2436.19C2360.43,2546.17 2314.08,2645.69 2250.1,2733.82" style="fill:none;stroke:black;stroke-width:20.33px;"/>
                </g>
            </g>
            <path d="M3961.36,1484.6L4057.88,1448.09L4029.18,1547.21C4027.88,1514.61 3993.97,1483.3 3961.36,1484.6Z"/>
            <path d="M3841.2,1482.51C3841.53,1513.44 3847.23,1534.47 3877.22,1549.03C3932.21,1575.73 3972.33,1541.39 4007.79,1502.34" style="fill:none;stroke:black;stroke-width:20.33px;"/>
        </g>
        <g>
            <g transform="matrix(1,0,0,1,-29.4857,2.10849)">
                <g transform="matrix(1,-0,-0,1,29.4857,-2.10849)">
                    <path d="M2996.39,2307.87L3082.3,2250.69L3076.5,2353.72C3067.93,2322.23 3027.88,2299.31 2996.39,2307.87Z"/>
                    <path d="M2523.78,2418.43C2564.94,2460.95 2618.74,2470.11 2675.18,2474.88C2819.9,2487.13 2962.86,2430.54 3045.61,2314.78" style="fill:none;stroke:black;stroke-width:20.33px;"/>
                </g>
            </g>
            <path d="M3331.98,2203.91L3238.97,2159.2L3330.54,2111.62C3307.83,2135.05 3308.55,2181.2 3331.98,2203.91Z"/>
            <path d="M3735.49,1603.69C3673.03,1762.97 3561.73,2046.45 3409.72,2131.43C3384.51,2145.52 3348.39,2154.15 3312.8,2158.05" style="fill:none;stroke:black;stroke-width:20.33px;"/>
            <path d="M911.689,1349.7C907.837,1356.09 903.419,1362.47 900.906,1369.56" style="fill:none;"/>
        </g>
        <g>
            <path d="M1645.45,1106.4L1552.33,1150.89L1572.61,1049.71C1576.64,1082.09 1613.06,1110.44 1645.45,1106.4Z" style="fill:rgb(158,163,174);"/>
            <path d="M1907.97,494.379C1831.01,609.038 1810.54,652.882 1764.38,783.076C1747.03,832.033 1749.18,897.3 1713.06,935.679C1669.86,981.583 1631.12,1043.95 1597.69,1092.62" style="fill:none;stroke:rgb(158,163,174);stroke-width:20.33px;"/>
            <path d="M1949.98,1165.74L1907.97,1260L1857.77,1169.84C1881.84,1191.87 1927.95,1189.82 1949.98,1165.74Z" style="fill:rgb(158,163,174);"/>
            <path d="M2287.1,528.571C2240.9,585.353 2196.87,652.221 2157.36,714.412C2111.31,786.882 2095.13,858.534 2045,938.618C1990.24,1026.09 1924.19,1116.33 1904.69,1186.23" style="fill:none;stroke:rgb(158,163,174);stroke-width:20.33px;"/>
            <path d="M2309.59,1301.92L2263.93,1394.47L2217.29,1302.41C2240.49,1325.36 2286.64,1325.12 2309.59,1301.92Z" style="fill:rgb(158,163,174);"/>
            <path d="M2665.31,725.356C2597.59,855.561 2534.63,1028.03 2417.3,1104.31C2307.39,1175.77 2271.36,1250.45 2263.54,1320.63" style="fill:none;stroke:rgb(158,163,174);stroke-width:20.33px;"/>
            <path d="M2654.2,1482.9L2567.27,1538.51L2574.93,1435.6C2582.93,1467.24 2622.56,1490.89 2654.2,1482.9Z" style="fill:rgb(158,163,174);"/>
            <path d="M3040.64,981.496C2992.94,997.615 2885.18,1230.91 2764.38,1295.4C2673.33,1344.01 2631.25,1420.69 2605.11,1475.1" style="fill:none;stroke:rgb(158,163,174);stroke-width:20.33px;"/>
            <path d="M2919.19,1712.66L2826.45,1757.91L2845.89,1656.57C2850.19,1688.91 2886.84,1716.96 2919.19,1712.66Z" style="fill:rgb(158,163,174);"/>
            <path d="M3392.51,1224.63C3254.11,1328.41 3194.39,1473 3082.3,1597.15C3029.14,1656.03 2980.57,1610.92 2908.37,1654.28C2901.8,1658.23 2886.85,1677.98 2871.32,1699.27" style="fill:none;stroke:rgb(158,163,174);stroke-width:20.33px;"/>
            <path d="M1174.42,1109.22L1267.71,1153.35L1176.43,1201.5C1199,1177.93 1197.99,1131.79 1174.42,1109.22Z" style="fill:rgb(158,163,174);"/>
            <path d="M474.387,1221.29C569.229,1192.9 699.547,1156.39 797.804,1186.67C855.793,1204.53 920.885,1236.53 982.055,1240.62C1032.09,1243.96 1100.85,1172.91 1193.88,1154.96" style="fill:none;stroke:rgb(158,163,174);stroke-width:20.33px;"/>
            <path d="M1566.79,1357.65L1663.1,1394.72L1575.66,1449.53C1596.41,1424.34 1591.97,1378.4 1566.79,1357.65Z" style="fill:rgb(158,163,174);"/>
            <path d="M940.628,1582.13C1043.34,1512.28 1138.98,1581.83 1241.99,1600.13C1376.33,1623.99 1431.19,1441.14 1589.6,1401.82" style="fill:none;stroke:rgb(158,163,174);stroke-width:20.33px;"/>
            <path d="M1860.75,1542.19L1959.33,1572.72L1875.76,1633.26C1894.77,1606.74 1887.27,1561.2 1860.75,1542.19Z" style="fill:rgb(158,163,174);"/>
            <path d="M1400.28,1814.12C1600.12,1841.95 1670.45,1639.76 1886.47,1584.72" style="fill:none;stroke:rgb(158,163,174);stroke-width:20.33px;"/>
            <path d="M2236.26,1786.56L2334.51,1818.12L2250.32,1877.79C2269.61,1851.47 2262.58,1805.86 2236.26,1786.56Z" style="fill:rgb(158,163,174);"/>
            <path d="M1843.79,2042.19C1994.02,2057.13 2109.32,1876.77 2261.53,1829.37" style="fill:none;stroke:rgb(158,163,174);stroke-width:20.33px;"/>
            <path d="M2628.64,1947.06L2731.83,1945.44L2671.22,2028.96C2681.05,1997.84 2659.76,1956.89 2628.64,1947.06Z" style="fill:rgb(158,163,174);"/>
            <path d="M2315.73,2228.3C2376.84,2192.55 2451.42,2192.92 2518.96,2175.27C2602.08,2153.55 2604.72,2039.62 2666.31,1979.5" style="fill:none;stroke:rgb(158,163,174);stroke-width:20.33px;"/>
        </g>
        <g>
            <path d="M3763.61,1499.59C3750.63,1460.34 3486.44,1193.68 3439.51,1157.93C3400.23,1127.99 3355.1,1108.66 3315.79,1079.46C3150.09,956.336 2994.82,831.234 2812.82,731.369C2721.3,681.147 2615.1,663.468 2522.35,613.388C2440.48,569.185 2367.51,506.716 2281.36,469.188C2223.8,444.115 2164.77,412.642 2104.66,394.658C2056.54,380.26 2005.42,375.237 1958.97,354.959C1887.2,323.621 1820.95,289.148 1742.28,273.073" style="fill:none;stroke:black;stroke-width:20.33px;stroke-dasharray:17.78,57.16,0,0;"/>
            <path d="M2397.92,2363.61C2337.4,2328.33 2281.35,2288.51 2215.69,2262.7C2100.01,2217.22 1974.49,2196.7 1858.61,2149.7C1713.12,2090.69 1571.8,2013.11 1431.83,1942.42C1278.89,1865.19 1120.3,1795.08 972.979,1707.28C826.376,1619.91 701.054,1494.96 575.152,1381.53C537.77,1347.85 489.929,1327.09 453.541,1291.58C425.886,1264.6 413.23,1226.1 392.313,1193.96C366.643,1154.52 327.792,1130.8 291.581,1102.2" style="fill:none;stroke:black;stroke-width:20.33px;stroke-dasharray:17.78,57.16,0,0;"/>
        </g>
    </g>
</svg>
