<?xml version="1.0" encoding="UTF-8" standalone="no"?>
<svg
   xmlns:dc="http://purl.org/dc/elements/1.1/"
   xmlns:cc="http://creativecommons.org/ns#"
   xmlns:rdf="http://www.w3.org/1999/02/22-rdf-syntax-ns#"
   xmlns:svg="http://www.w3.org/2000/svg"
   xmlns="http://www.w3.org/2000/svg"
   xmlns:sodipodi="http://sodipodi.sourceforge.net/DTD/sodipodi-0.dtd"
   xmlns:inkscape="http://www.inkscape.org/namespaces/inkscape"
   height="106.75551"
   width="106.81356"
   xml:space="preserve"
   viewBox="0 0 106.81356 106.75551"
   y="0px"
   x="0px"
   id="Layer_1"
   version="1.1"
   sodipodi:docname="laser2.svg"
   inkscape:version="0.92.5 (2060ec1f9f, 2020-04-08)"><sodipodi:namedview
   pagecolor="#ffffff"
   bordercolor="#666666"
   borderopacity="1"
   objecttolerance="10"
   gridtolerance="10"
   guidetolerance="10"
   inkscape:pageopacity="0"
   inkscape:pageshadow="2"
   inkscape:window-width="1920"
   inkscape:window-height="1050"
   id="namedview25"
   showgrid="false"
   fit-margin-top="0"
   fit-margin-left="0"
   fit-margin-right="0"
   fit-margin-bottom="0"
   inkscape:zoom="1.2833062"
   inkscape:cx="94.337712"
   inkscape:cy="14.805513"
   inkscape:window-x="0"
   inkscape:window-y="0"
   inkscape:window-maximized="1"
   inkscape:current-layer="Layer_1" /><metadata
   id="metadata57"><rdf:RDF><cc:Work
       rdf:about=""><dc:format>image/svg+xml</dc:format><dc:type
         rdf:resource="http://purl.org/dc/dcmitype/StillImage" /><dc:title></dc:title></cc:Work></rdf:RDF></metadata><defs
   id="defs55">
	
	
	
	
</defs>



<path
   id="path8"
   d="m 53.406781,95.609748 c -23.27839,0 -42.261018,-18.924577 -42.261018,-42.261018 0,-23.27839 18.924577,-42.261018 42.261018,-42.261018 23.27839,0 42.261018,18.924577 42.261018,42.261018 0,23.336441 -18.982628,42.261018 -42.261018,42.261018 z m 0,-73.434324 c -17.241102,0 -31.231357,13.990255 -31.231357,31.231357 0,17.241102 13.990255,31.231357 31.231357,31.231357 17.241102,0 31.231357,-13.990255 31.231357,-31.231357 0,-17.241102 -13.990255,-31.231357 -31.231357,-31.231357 z"
   style="fill:#e95228;fill-opacity:1;stroke-width:0.58050847"
   inkscape:connector-curvature="0" />
<path
   style="fill:#d30c4f;fill-opacity:1;stroke-width:0.58050847"
   d="M 101.29873,58.921612 H 78.891104 c -3.018645,0 -5.514831,-2.496187 -5.514831,-5.514831 0,-3.018644 2.438136,-5.514831 5.514831,-5.514831 h 22.407626 c 3.01865,0 5.51483,2.496187 5.51483,5.514831 0,3.018644 -2.49618,5.514831 -5.51483,5.514831 z"
   id="path10"
   inkscape:connector-curvature="0" /><path
   style="fill:#d30c4f;fill-opacity:1;stroke-width:0.58050847"
   d="M 27.922458,58.921612 H 5.5148306 C 2.4961865,58.921612 0,56.425425 0,53.406781 0,50.388137 2.4961865,47.89195 5.5148306,47.89195 H 27.922458 c 3.018644,0 5.514831,2.496187 5.514831,5.514831 0,3.018644 -2.438136,5.514831 -5.514831,5.514831 z"
   id="path12"
   inkscape:connector-curvature="0" /><path
   style="fill:#d30c4f;fill-opacity:1;stroke-width:0.58050847"
   d="m 53.406781,106.75551 c -3.018644,0 -5.514831,-2.49619 -5.514831,-5.51483 V 78.833053 c 0,-3.018644 2.438136,-5.514831 5.514831,-5.514831 3.076695,0 5.514831,2.496187 5.514831,5.514831 v 22.407627 c 0,3.0767 -2.496187,5.51483 -5.514831,5.51483 z"
   id="path14"
   inkscape:connector-curvature="0" /><path
   style="fill:#d30c4f;fill-opacity:1;stroke-width:0.58050847"
   d="m 53.406781,33.437289 c -3.018644,0 -5.514831,-2.496187 -5.514831,-5.514831 V 5.5148306 C 47.89195,2.4961865 50.330086,0 53.406781,0 c 3.018644,0 5.514831,2.4961865 5.514831,5.5148306 V 27.922458 c 0,3.018644 -2.438136,5.514831 -5.514831,5.514831 z"
   id="path16"
   inkscape:connector-curvature="0" />

<g
   transform="translate(-160.5,-180.3)"
   id="g22">
</g>
<g
   transform="translate(-160.5,-180.3)"
   id="g24">
</g>
<g
   transform="translate(-160.5,-180.3)"
   id="g26">
</g>
<g
   transform="translate(-160.5,-180.3)"
   id="g28">
</g>
<g
   transform="translate(-160.5,-180.3)"
   id="g30">
</g>
<g
   transform="translate(-160.5,-180.3)"
   id="g32">
</g>
<g
   transform="translate(-160.5,-180.3)"
   id="g34">
</g>
<g
   transform="translate(-160.5,-180.3)"
   id="g36">
</g>
<g
   transform="translate(-160.5,-180.3)"
   id="g38">
</g>
<g
   transform="translate(-160.5,-180.3)"
   id="g40">
</g>
<g
   transform="translate(-160.5,-180.3)"
   id="g42">
</g>
<g
   transform="translate(-160.5,-180.3)"
   id="g44">
</g>
<g
   transform="translate(-160.5,-180.3)"
   id="g46">
</g>
<g
   transform="translate(-160.5,-180.3)"
   id="g48">
</g>
<g
   transform="translate(-160.5,-180.3)"
   id="g50">
</g>
</svg>